<svg class="mx-auto flex lg:hidden" width="59" height="12" viewBox="0 0 59 12" fill="none" xmlns="http://www.w3.org/2000/svg"><path d="M7.33544 0.0879993L5.31944 4.168C5.14344 4.536 5.03144 4.792 4.93544 5.144H4.90344C4.79144 4.792 4.69544 4.536 4.50344 4.168L2.48744 0.0879993H0.199438L3.87944 7.096V11H5.94344V7.112L9.65544 0.0879993H7.33544ZM12.9402 11.176C15.2762 11.176 16.9562 9.464 16.9562 7.24C16.9562 5.016 15.2762 3.32 12.9402 3.32C10.6042 3.32 8.92419 5.016 8.92419 7.24C8.92419 9.464 10.6042 11.176 12.9402 11.176ZM12.9402 9.4C11.7722 9.4 10.9242 8.52 10.9242 7.24C10.9242 5.976 11.7722 5.08 12.9402 5.08C14.1082 5.08 14.9562 5.976 14.9562 7.24C14.9562 8.52 14.1082 9.4 12.9402 9.4ZM21.7188 11.176C23.7988 11.192 25.2228 9.688 25.2228 7.768V3.48H23.1908V7.608C23.1908 8.728 22.7428 9.4 21.7188 9.384C20.7588 9.368 20.2788 8.696 20.2788 7.608V3.48H18.2468V7.752C18.2468 9.736 19.4948 11.16 21.7188 11.176ZM28.9819 11V6.792C28.9819 5.752 29.4619 5.24 30.5819 5.24C30.6779 5.24 30.8859 5.24 31.1259 5.256V3.432C30.7899 3.352 30.5019 3.32 30.1179 3.32C28.0059 3.32 26.9499 4.76 26.9499 6.568V11H28.9819ZM45.7858 11L41.8338 0.0879993H39.3218L35.3698 11H37.5298L38.3618 8.648H42.7778L43.6098 11H45.7858ZM40.3938 2.616C40.4738 2.376 40.5218 2.2 40.5538 2.04H40.5858C40.6178 2.2 40.6658 2.376 40.7458 2.616L42.2338 6.856H38.9058L40.3938 2.616ZM51.4828 0.0879993H47.0028V11H49.0508V6.984H51.4828C53.4668 6.984 55.1308 5.768 55.1308 3.528C55.1308 1.288 53.4668 0.0879993 51.4828 0.0879993ZM49.0508 5.048V2.024H51.1788C52.2988 2.024 53.0508 2.552 53.0508 3.528C53.0508 4.504 52.2988 5.048 51.1628 5.048H49.0508ZM58.7257 11V0.0879993H56.6777V11H58.7257Z" fill="white"/></svg>