<svg width="103" height="28" viewBox="0 0 103 28" fill="none" xmlns="http://www.w3.org/2000/svg"><path d="M19.5998 16.7846H12.233L20.0821 8.92197C20.1561 8.84781 20.2064 8.75332 20.2269 8.65048C20.2473 8.54764 20.2368 8.44103 20.1968 8.34416C20.1567 8.24728 20.0889 8.16449 20.0019 8.10622C19.9149 8.04795 19.8125 8.01684 19.7079 8.0168H7.24204V2.8002H20.9153C21.9191 2.78796 22.9057 3.06107 23.7608 3.58789C24.6158 4.1147 25.3043 4.8736 25.7461 5.77652C26.2024 6.74221 26.349 7.82572 26.1659 8.87823C25.9827 9.93074 25.4788 10.9006 24.7233 11.6547L19.5998 16.7846Z" fill="#FF00BD"/><path d="M7.2421 10.5294H14.6092L6.7759 18.3762C6.70065 18.4517 6.64943 18.5478 6.62868 18.6525C6.60793 18.7571 6.61863 18.8655 6.65937 18.964C6.7001 19.0626 6.76902 19.1468 6.85753 19.2061C6.94603 19.2654 7.05013 19.2971 7.15661 19.2972H19.5873V24.5138H5.92723C4.92348 24.526 3.93693 24.2528 3.08188 23.726C2.22684 23.1992 1.53837 22.4403 1.09643 21.5375C0.640228 20.5718 0.493665 19.4882 0.676871 18.4357C0.860078 17.3832 1.36411 16.4133 2.11967 15.6593L7.2421 10.5294Z" fill="#FF00BD"/><path d="M58.5505 14.5388C58.5505 16.3988 57.8266 17.5372 56.1284 17.5095C54.5694 17.4817 53.762 16.3433 53.762 14.5114V7.48723H49.9207V14.7884C49.9207 18.3146 52.1199 20.8134 56.1284 20.8411C59.8032 20.8688 62.3922 18.1759 62.3922 14.8166V7.48723H58.5505V14.5388Z" fill="#FF00BD"/><path d="M95.8648 7.18061C91.7168 7.18061 88.7957 10.1235 88.7957 14.0103C88.7957 17.8971 91.7187 20.84 95.8648 20.84C100.011 20.84 102.934 17.8971 102.934 14.0103C102.934 10.1235 100.012 7.18061 95.8648 7.18061ZM95.8648 17.5361C93.9438 17.5361 92.5813 16.0926 92.5813 14.0103C92.5813 11.928 93.9453 10.4841 95.8648 10.4841C97.7843 10.4841 99.1483 11.928 99.1483 14.0103C99.1483 16.0926 97.7854 17.5361 95.8648 17.5361Z" fill="#FF00BD"/><path d="M71.9763 7.18057C67.8283 7.18057 64.9071 10.1235 64.9071 14.0103C64.9071 14.0619 64.9132 14.1116 64.914 14.1643H64.9071V25.2048H68.6928V20.1249C69.7204 20.6037 70.8421 20.8478 71.9763 20.8392C76.1243 20.8392 79.0453 17.8963 79.0453 14.0095C79.0453 10.1227 76.1243 7.18057 71.9763 7.18057ZM71.9763 17.5361C70.0553 17.5361 68.6928 16.0925 68.6928 14.0103C68.6928 11.928 70.0568 10.4841 71.9763 10.4841C73.8958 10.4841 75.2598 11.928 75.2598 14.0103C75.2598 16.0925 73.8973 17.5361 71.9763 17.5361Z" fill="#FF00BD"/><path d="M35.5078 10.7873H43.0776L35.5078 16.7032V20.5345H47.7675V17.2333H40.1796L47.7675 11.3024V7.48607H35.5078V10.7873Z" fill="#FF00BD"/><path d="M87.6584 20.5344H86.3765C84.9948 20.5329 83.6701 19.9848 82.6931 19.0105C81.7161 18.0361 81.1666 16.715 81.165 15.3371V2.80371H85.0279V15.3371C85.0289 15.6935 85.1713 16.035 85.424 16.287C85.6767 16.539 86.0191 16.681 86.3765 16.6819H87.6584V20.5344Z" fill="#FF00BD"/></svg>