<svg xmlns="http://www.w3.org/2000/svg" fill="none" viewBox="0 0 237 96" class="h-8 lg:h-11" role="img" aria-label="Rewiring America"><path d="M12.172 89.769c-3.014 0-5.465-2.457-5.465-5.48v-7.082h.64v7.082c0 2.666 2.166 4.838 4.825 4.838 2.66 0 4.826-2.172 4.826-4.838V43.74h.64v40.552c0 3.023-2.451 5.48-5.466 5.48v-.004ZM54.894 94.717a.814.814 0 0 1-.597.3h-7.968c-.086 0-.214-.13-.299-.172-.085-.085-.128-.171-.17-.257 0-.042-.086-.17-.086-.213l-1.109-5.899-.427-2.348h-3.365a.766.766 0 0 1-.768-.77c0-.428.341-.77.768-.77h3.92c.384-.043.81.257.853.642l.512 2.947.981 5.3h6.176l-9.498-39.65h-7.03l-5.963 25.081-3.493 14.568h6.219l2.128-11.75c.427-2.347 1.365-3.802 4.475-3.802h2.554l-2.384-12.947-1.663 9.06a.744.744 0 0 1-.896.598c-.427-.085-.726-.427-.64-.855l2.427-13.16c.042-.343.383-.6.767-.6s.683.257.726.6l3.322 17.899v.342c0 .085-.128.214-.17.3-.043.085-.17.17-.256.213a.605.605 0 0 1-.256.086h-3.365l-.086-.043-.085.043c-2.128 0-2.64.599-2.982 2.562L34.91 94.37c0 .042-.042.17-.042.214-.043.085-.129.213-.214.256-.085.086-.213.171-.299.171h-8.01a.814.814 0 0 1-.597-.299c-.128-.171-.214-.428-.17-.642l9.84-41.184a.82.82 0 0 1 .767-.599h8.224c.341 0 .64.257.725.599l6.176 25.633 3.707 15.551s0 .47-.128.642l.005.005ZM91.155 53.062v41.184c0 .428-.341.77-.768.77h-7.925a.766.766 0 0 1-.768-.77V78.78c0-3.032.043-4.444-1.493-6.236L66.777 55.966c-.17-.171-.299-.385-.47-.599-.767-.941-1.236-1.54-3.237-1.54h-2.298v39.65h6.048V67.671c0-.085 0-.213.042-.299a.515.515 0 0 1 .214-.214c.085-.085.213-.171.298-.171.043 0 .171-.043.214-.043.085 0 .213.043.298.086.086.043.214.085.256.17v.044l6.859 8.46c.256.342.213.813-.128 1.07-.341.256-.81.256-1.066-.086l-5.499-6.835v24.397c0 .428-.341.77-.768.77H60a.766.766 0 0 1-.768-.77V53.06c0-.427.341-.77.768-.77h3.067c2.725 0 3.493 1.07 4.389 2.135.128.171.299.342.47.513L81.39 71.56c1.834 2.22 1.834 4.102 1.834 7.22l-.043.898.043 13.798h6.39V53.832H87.4c-2.342 0-2.342-.043-3.067 1.155-.597.94-4.432 7.39-4.475 7.433-.213.343-.682.471-1.023.257-.342-.214-.47-.684-.256-1.026.17-.257 3.877-6.493 4.474-7.477 1.195-1.877 1.877-1.877 4.39-1.877h2.938c.427 0 .768.342.768.77l.005-.005ZM97.236 95.016a.766.766 0 0 1-.767-.77V80.62c0-2.52 2.042-4.573 4.602-4.658h12.613v-5.343h-8.522a.766.766 0 0 1-.768-.77v-9.572c0-.428.341-.77.768-.77h11.333v-5.68h-18.49v19.654c0 .427-.342.727-.769.727-.426 0-.767-.3-.767-.727V53.057c0-.428.34-.77.767-.77h20.027c.426 0 .768.342.768.77v7.22c0 .428-.342.77-.768.77H105.93v8.032h8.479c.427 0 .768.343.768.77v6.878c0 .428-.341.727-.768.727h-13.167c-1.792 0-3.238 1.454-3.238 3.204v12.818h18.491v-5.68h-11.333a.766.766 0 0 1-.768-.77v-5.3c0-.427.341-.77.768-.77.426 0 .768.343.768.77v4.53h11.333c.426 0 .768.343.768.77v7.22c0 .428-.342.77-.768.77H97.236ZM138.612 95.016a.731.731 0 0 1-.725-.556l-3.92-14.61h-1.408v14.396c0 .428-.299.77-.725.77h-7.755a.766.766 0 0 1-.768-.77V74.892c0-2.69 1.152-3.845 3.835-3.845h6.56c2.005 0 3.323-.342 3.323-5.556 0-3.674-.939-5.171-3.323-5.171h-1.152v6.492c0 .428-.299.77-.725.77a.766.766 0 0 1-.768-.77V59.55c0-.428.341-.77.768-.77h1.872c4.859 0 4.859 5.043 4.859 6.706 0 5.214-1.323 7.091-4.859 7.091h-6.56c-1.834 0-2.299.471-2.299 2.306v18.584h6.219v-14.44c0-.427.341-.77.768-.77h2.725c.214 0 .384.129.512.257.086.086.214.257.214.385l3.92 14.568h6.688l-5.157-15.723c-.043-.086-.043-.214-.043-.342 0-.214.171-.428.341-.556.171-.086.342-.257.512-.385 2.256-1.84 3.707-5.813 3.707-10.338 0-3.546-.768-6.493-2.256-8.76-2.257-3.545-5.669-3.545-9.291-3.545h-8.864v14.011c0 .428-.341.77-.767.77a.766.766 0 0 1-.768-.77V53.048c0-.428.341-.77.768-.77h9.626c3.664 0 7.883.042 10.566 4.273 1.664 2.519 2.512 5.727 2.512 9.572 0 5.043-1.621 9.358-4.261 11.535-.043.043-.128.086-.171.129l5.328 16.236c.085.214 0 .47-.128.684-.128.214-.341.3-.597.3h-8.352l.019.01ZM153.804 95.016a.766.766 0 0 1-.768-.77V65.705c0-3.888 2.171-4.401 4.005-4.401h.938c.427 0 .768.342.768.77 0 .427-.341.77-.768.77h-.938c-1.493 0-2.47.213-2.47 2.86v27.772h6.177V53.832h-6.177v3.888c0 .428-.341.77-.767.77a.766.766 0 0 1-.768-.77v-4.658c0-.428.341-.77.768-.77h7.669c.426 0 .768.342.768.77v41.184c0 .428-.342.77-.768.77h-7.669ZM182.518 95.658c-2.042 0-3.92-1.231-5.114-3.39-1.237-2.242-1.365-8.754-1.365-13.421V74.36c0-3.831.213-9.33 1.194-12.101.811-2.286 1.963-3.256 3.963-3.256h.043c3.28 0 3.536 4.796 3.664 9.197l6.816-.57c-.768-9.506-4.389-14.392-10.694-14.392-2.81 0-5.157.922-6.944 2.77-4.005 4.093-4.816 12.016-4.816 17.91 0 8.403 1.494 14.259 4.432 17.381.299.31.256.837-.042 1.146-.299.309-.768.266-1.067-.043-3.28-3.474-4.858-9.549-4.858-18.484 0-6.203.896-14.568 5.285-19.055 2.09-2.158 4.773-3.213 7.968-3.213h.085c5.114 0 11.376 2.904 12.272 16.636 0 .442-.299.793-.725.836l-8.395.746c-.213 0-.384-.09-.554-.218a.759.759 0 0 1-.299-.57v-.31c-.085-3.431-.256-8.141-2.171-8.141-1.194 0-1.872.309-2.555 2.157-.981 2.862-1.066 9.463-1.066 11.617v4.444c0 8.669.597 11.663 1.151 12.628.939 1.673 2.304 2.595 3.835 2.595h.043c6.944-.042 8.522-9.463 8.864-13.422l-6.646-.485v.66c-.043 2.42-.085 5.766-2.256 7.306-.341.266-.811.133-1.067-.219a.795.795 0 0 1 .171-1.097c1.536-1.056 1.578-3.96 1.621-6.027 0-.57 0-1.098.043-1.54.042-.442.384-.704.81-.704l8.224.618c.427 0 .683.395.683.837-.214 3.65-1.659 15.665-10.48 15.665h-.043l-.01-.004ZM224.719 94.717a.814.814 0 0 1-.598.3h-7.968c-.085 0-.213-.13-.298-.172-.085-.085-.128-.171-.171-.257 0-.042-.085-.17-.085-.213l-1.109-5.899-.427-2.348h-3.365a.766.766 0 0 1-.768-.77c0-.428.341-.77.768-.77h3.92c.384-.043.81.257.853.642l.512 2.947.981 5.3h6.176l-9.503-39.65h-7.03l-5.963 25.081-3.493 14.568h6.219l2.128-11.75c.427-2.347 1.365-3.802 4.475-3.802h2.554l-2.384-12.947-1.664 9.06a.743.743 0 0 1-.895.598c-.427-.085-.726-.427-.64-.855l2.427-13.16c.042-.343.383-.6.767-.6s.683.257.726.6l3.322 17.899v.342c0 .085-.128.214-.17.3-.043.085-.171.17-.256.213-.086.043-.171.086-.256.086h-3.366l-.085-.043-.085.043c-2.128 0-2.64.599-2.982 2.562L204.73 94.37c0 .042-.043.17-.043.214-.042.085-.128.213-.213.256-.085.086-.213.171-.298.171h-8.011a.814.814 0 0 1-.597-.299c-.128-.171-.214-.428-.171-.642l9.84-41.184a.82.82 0 0 1 .768-.599h8.224c.341 0 .64.257.725.599l6.176 25.633 3.707 15.551s0 .47-.128.642l.01.005Z"/><path d="M29.056 43.741a.732.732 0 0 1-.725-.556l-3.92-14.61h-1.408V42.97c0 .428-.298.77-.725.77h-7.75a.766.766 0 0 1-.768-.77V23.617c0-2.69 1.152-3.845 3.835-3.845h6.56c2.005 0 3.323-.342 3.323-5.556 0-3.674-.939-5.171-3.323-5.171h-1.152v6.492c0 .428-.298.77-.725.77a.766.766 0 0 1-.768-.77V8.275c0-.428.341-.77.768-.77h1.872c4.859 0 4.859 5.043 4.859 6.706 0 5.214-1.323 7.092-4.859 7.092h-6.56c-1.834 0-2.299.47-2.299 2.305v18.584h6.22v-14.44c0-.427.34-.77.767-.77h2.726c.213 0 .383.129.511.257.086.086.214.257.214.385l3.92 14.568h6.688L31.18 26.469c-.043-.085-.043-.214-.043-.342 0-.214.17-.428.341-.556.171-.086.342-.257.512-.385 2.256-1.84 3.707-5.813 3.707-10.338 0-3.546-.768-6.492-2.256-8.76-2.257-3.545-5.67-3.545-9.29-3.545h-8.864v14.012c0 .427-.342.77-.768.77a.766.766 0 0 1-.768-.77V1.782c0-.427.341-.77.768-.77h9.627c3.664 0 7.882.043 10.565 4.273 1.664 2.52 2.512 5.728 2.512 9.573 0 5.043-1.62 9.358-4.261 11.535-.043.043-.128.086-.17.128l5.327 16.236c.085.214 0 .471-.128.685-.128.214-.341.3-.597.3h-8.352.014ZM44.248 43.741a.766.766 0 0 1-.768-.77V29.345c0-2.52 2.043-4.573 4.603-4.658h12.613v-5.343h-8.523a.766.766 0 0 1-.768-.77V9.003c0-.428.342-.77.768-.77h11.334v-5.68H45.016v19.654c0 .428-.341.727-.768.727s-.768-.3-.768-.727V1.782c0-.427.341-.77.768-.77h20.026c.427 0 .768.343.768.77v7.22c0 .428-.341.77-.768.77H52.941v8.033h8.48c.426 0 .768.342.768.77v6.877c0 .428-.342.727-.768.727H48.253c-1.791 0-3.237 1.455-3.237 3.204V42.2h18.49v-5.68H52.174a.766.766 0 0 1-.768-.77v-5.299c0-.428.342-.77.768-.77.427 0 .768.342.768.77v4.53h11.333c.427 0 .768.342.768.77v7.22c0 .427-.341.77-.768.77H44.248ZM112.295 1.91l-8.522 41.228c-.085.342-.384.599-.725.599h-3.707c-2.555-.129-4.176-2.177-5.072-6.194v-.042L88.008 6.055l-3.622 21.959c-.042.385-.384.642-.768.642s-.725-.3-.767-.642L78.076 2.552H72.03l8.31 39.65h2.938c1.195 0 2.726-.557 3.707-5l1.024-6.28c.042-.427.426-.684.853-.641.426.043.682.47.64.898l-1.024 6.322v.043c-.939 4.23-2.555 6.193-5.2 6.193h-3.536a.82.82 0 0 1-.768-.6L70.327 1.954c-.042-.213.043-.47.171-.641a.814.814 0 0 1 .597-.3h7.627c.384 0 .683.3.725.642l4.133 21.83 3.622-21.83a.704.704 0 0 1 .725-.642c.384-.042.725.3.768.642l7.072 35.547c.981 4.487 2.683 5 3.877 5h2.768l8.182-39.649h-6.006L99.9 28.014a.738.738 0 0 1-.725.642c-.384 0-.725-.257-.768-.642L94.231 1.91c-.042-.428.214-.856.64-.899.427-.042.81.214.853.642l3.494 21.702 3.962-21.702c.043-.342.384-.642.768-.642h7.627c.213 0 .426.129.554.3.128.17.214.385.171.599h-.005ZM118.391 43.741a.766.766 0 0 1-.768-.77V14.43c0-3.888 2.171-4.401 4.005-4.401h.939c.427 0 .768.342.768.77s-.341.77-.768.77h-.939c-1.493 0-2.469.214-2.469 2.86v27.772h6.176V2.552h-6.176V6.44c0 .428-.341.77-.768.77a.766.766 0 0 1-.768-.77V1.782c0-.427.341-.77.768-.77h7.669c.427 0 .768.343.768.77v41.19c0 .427-.341.77-.768.77h-7.669ZM147.405 43.741a.732.732 0 0 1-.726-.556l-3.92-14.61h-1.407V42.97c0 .428-.299.77-.726.77h-7.754a.766.766 0 0 1-.768-.77V23.617c0-2.69 1.152-3.845 3.834-3.845h6.561c2.005 0 3.322-.342 3.322-5.556 0-3.674-.938-5.171-3.322-5.171h-1.152v6.492c0 .428-.299.77-.725.77a.766.766 0 0 1-.768-.77V8.275c0-.428.341-.77.768-.77h1.872c4.858 0 4.858 5.043 4.858 6.706 0 5.214-1.322 7.092-4.858 7.092h-6.56c-1.835 0-2.299.47-2.299 2.305v18.584h6.219v-14.44c0-.427.341-.77.768-.77h2.725c.213 0 .384.129.512.257.085.086.213.257.213.385l3.92 14.568h6.688l-5.157-15.723c-.042-.085-.042-.214-.042-.342 0-.214.17-.428.341-.556.171-.086.341-.257.512-.385 2.256-1.84 3.707-5.813 3.707-10.338 0-3.546-.768-6.492-2.257-8.76-2.256-3.545-5.669-3.545-9.29-3.545h-8.864v14.012c0 .427-.341.77-.768.77a.766.766 0 0 1-.768-.77V1.782c0-.427.342-.77.768-.77h9.627c3.664 0 7.883.043 10.566 4.273 1.663 2.52 2.512 5.728 2.512 9.573 0 5.043-1.621 9.358-4.261 11.535-.043.043-.128.086-.171.128l5.328 16.236c.085.214 0 .471-.128.685-.128.214-.342.3-.598.3h-8.351.019ZM162.596 43.741a.766.766 0 0 1-.768-.77V14.43c0-3.888 2.171-4.401 4.006-4.401h.938c.427 0 .768.342.768.77s-.341.77-.768.77h-.938c-1.493 0-2.47.214-2.47 2.86v27.772h6.176V2.552h-6.176V6.44c0 .428-.341.77-.768.77a.766.766 0 0 1-.768-.77V1.782c0-.427.342-.77.768-.77h7.67c.426 0 .767.343.767.77v41.19c0 .427-.341.77-.767.77h-7.67ZM177.85 2.552v39.65h6.389V16.563c0-.085.043-.214.085-.3a.514.514 0 0 1 .214-.213c.085-.043.17-.129.256-.129h.298c.086 0 .214.043.299.086a.512.512 0 0 1 .213.214l.085.085 11.803 22.643.853 1.326c.811 1.241 1.621 1.925 4.006 1.925h2.682c.427 0 .726.343.726.77 0 .428-.299.77-.726.77h-2.682c-2.555 0-4.091-.77-5.328-2.647l-.853-1.326v-.043l-10.395-19.953v23.2c0 .427-.341.77-.768.77h-7.925a.81.81 0 0 1-.555-.214.814.814 0 0 1-.213-.557V1.782c0-.427.341-.77.768-.77h6.053c2.768 0 4.005 1.198 5.114 3.161l16.021 29.098V2.552h-6.645v8.974c0 .428-.341.77-.768.77a.766.766 0 0 1-.768-.77V1.782c0-.427.341-.77.768-.77h8.181c.427 0 .725.343.725.77v34.564a.788.788 0 0 1-.085.3.518.518 0 0 1-.213.213c-.086.043-.171.128-.256.128h-.256a.797.797 0 0 1-.299-.085c-.085-.043-.213-.129-.256-.214l-.042-.086L186.927 4.9c-.939-1.668-1.707-2.348-3.792-2.348h-5.285ZM225.359 44.293c-2.001-.31-3.622-1.455-4.646-3.346-1.237-2.244-1.365-8.713-1.365-13.38V23.08c0-3.83.171-9.33 1.152-12.1.811-2.287 2-3.256 4.005-3.256h.043c3.28 0 3.536 4.795 3.664 9.197l6.816-.57c-.768-9.507-4.389-14.393-10.693-14.393-2.811 0-5.157.922-6.944 2.771-4.006 4.092-4.816 12.016-4.816 17.91 0 8.402 1.493 14.258 4.432 17.38.298.31.256.794-.043 1.099a.733.733 0 0 1-1.066 0c-3.281-3.475-4.859-9.549-4.859-18.485 0-6.202.896-14.567 5.285-19.054 2.09-2.158 4.773-3.213 8.011-3.213 5.114 0 11.418 2.904 12.314 16.635 0 .442-.298.794-.725.837l-8.395.746c-.213 0-.383-.09-.554-.219a.759.759 0 0 1-.299-.57v-.309c-.085-3.431-.256-8.184-2.171-8.184-1.194 0-1.919.351-2.554 2.2-.982 2.861-1.067 9.463-1.067 11.616v4.444c0 8.67.597 11.664 1.152 12.629.81 1.454 2.048 2.334 3.579 2.552 2.725.395 5.792-1.23 7.498-2.947 1.877-1.891 2-2.552 2-2.638V25.671l-8.309-.837v2.51l1.664.218c.384.043.64.395.64.794v9.767a.777.777 0 0 1-.768.794.777.777 0 0 1-.768-.794v-9.111l-1.621-.219c-.384-.042-.682-.394-.682-.793v-4.05c0-.218.085-.485.255-.618.171-.133.384-.176.598-.176l9.797 1.013c.384.043.726.351.726.746v12.234c0 1.098-1.28 2.552-2.47 3.74-1.834 1.85-4.773 3.475-7.712 3.475-.341 0-.768-.043-1.109-.086l.005.015ZM12.637 81.703H1.422a1.032 1.032 0 0 1-1.029-1.031V69.426c0-.57.465-1.031 1.029-1.031h11.215c.569 0 1.028.46 1.028 1.031v11.246c0 .57-.464 1.031-1.028 1.031ZM1.422 69.032a.393.393 0 0 0-.393.394v11.246c0 .218.175.394.393.394h11.215a.393.393 0 0 0 .393-.394V69.426a.393.393 0 0 0-.393-.394H1.422Z"/><path d="M7.03 76.29c1.413 0 2.559-1.15 2.559-2.567a2.563 2.563 0 0 0-2.56-2.567 2.563 2.563 0 0 0-2.56 2.567 2.563 2.563 0 0 0 2.56 2.567Z"/><path d="M7.608 74.726H6.45a.517.517 0 0 0-.517.518v3.246c0 .286.232.518.517.518h1.157a.517.517 0 0 0 .516-.518v-3.246a.517.517 0 0 0-.516-.518Z"/></svg>