<svg class="my-5 lg:mb-8 lg:mt-0" width="148" height="167" viewBox="0 0 148 167" fill="none" xmlns="http://www.w3.org/2000/svg"><rect x="28" y="63" width="84" height="74" rx="4" fill="url(#mobile_paint0_linear_3575_8422)"/><rect x="24" y="59" width="92" height="74" rx="4" fill="url(#mobile_paint1_linear_3575_8422)"/><rect x="20" y="55" width="100" height="74" rx="4" fill="white"/><circle cx="26" cy="61" r="2" fill="#D9D9D9"/><circle cx="32" cy="61" r="2" fill="#D9D9D9"/><circle cx="38" cy="61" r="2" fill="#D9D9D9"/><path d="M24 71C24 69.8954 24.8954 69 26 69H114C115.105 69 116 69.8954 116 71V123C116 124.105 115.105 125 114 125H26C24.8954 125 24 124.105 24 123V71Z" fill="#EDEDED"/><rect x="27" y="87" width="12" height="4" rx="1" fill="#D9D9D9"/><rect x="43" y="87" width="5" height="4" rx="1" fill="#D9D9D9"/><rect x="52" y="87" width="7" height="4" rx="1" fill="#D9D9D9"/><rect x="27" y="103" width="12" height="4" rx="1" fill="#D9D9D9"/><rect x="43" y="103" width="25" height="4" rx="1" fill="#D9D9D9"/><rect x="72" y="103" width="5" height="4" rx="1" fill="#D9D9D9"/><rect x="81" y="103" width="9" height="4" rx="1" fill="#D9D9D9"/><rect x="27" y="95" width="7" height="4" rx="1" fill="#D9D9D9"/><rect x="39" y="95" width="23" height="4" rx="1" fill="#D9D9D9"/><rect x="67" y="95" width="5" height="4" rx="1" fill="#D9D9D9"/><rect x="77" y="95" width="7" height="4" rx="1" fill="#D9D9D9"/><rect x="27" y="111" width="7" height="4" rx="1" fill="#D9D9D9"/><rect x="38" y="111" width="5" height="4" rx="1" fill="#D9D9D9"/><rect x="47" y="111" width="27" height="4" rx="1" fill="#D9D9D9"/><path d="M27 73C27 72.4477 27.4477 72 28 72H46C46.5523 72 47 72.4477 47 73V76C47 76.5523 46.5523 77 46 77H28C27.4477 77 27 76.5523 27 76V73Z" fill="#D9D9D9"/><path fill-rule="evenodd" clip-rule="evenodd" d="M114.462 41.1504C116.412 41.1504 118.063 42.589 118.329 44.5204C118.529 45.9679 119.541 47.1464 120.828 47.8383C121.101 47.9848 121.369 48.1393 121.631 48.3013C122.871 49.0667 124.393 49.3513 125.743 48.802C127.548 48.0672 129.619 48.7772 130.594 50.4653L131.395 51.8532C132.315 53.4465 131.918 55.4742 130.465 56.6031C129.335 57.4813 128.855 58.933 128.959 60.3603C128.986 60.7366 129 61.1167 129 61.5C129 61.6449 128.998 61.7894 128.994 61.9333C128.958 63.2705 129.443 64.6052 130.499 65.4261C131.933 66.5404 132.325 68.5419 131.417 70.1146L130.311 72.0308C129.499 73.4367 127.774 74.028 126.271 73.416C125.075 72.9295 123.723 73.2223 122.684 73.9877C121.942 74.5341 121.15 75.016 120.316 75.4251C119.239 75.9531 118.406 76.9225 118.242 78.1107C118.026 79.681 116.683 80.8506 115.098 80.8506H112.269C110.768 80.8506 109.498 79.7432 109.293 78.2565C109.132 77.092 108.296 76.152 107.221 75.6754C106.197 75.2212 105.232 74.6593 104.339 74.0042C103.386 73.3048 102.147 73.0474 101.052 73.493C99.6574 74.0606 98.0579 73.5121 97.3051 72.2083L95.9122 69.7957C95.1096 68.4055 95.4559 66.6362 96.7234 65.6511C97.678 64.9092 98.1073 63.6953 98.0313 62.4887C98.0108 62.1617 98.0003 61.8321 98.0003 61.5C98.0003 60.9313 98.0309 60.3698 98.0906 59.817C98.2305 58.5212 97.8033 57.191 96.7742 56.3912C95.4782 55.384 95.1241 53.575 95.9448 52.1535L97.0188 50.2933C97.9363 48.7041 99.8858 48.0356 101.585 48.7274C102.839 49.2376 104.253 48.9859 105.407 48.2783C105.823 48.0229 106.252 47.7867 106.693 47.5708C107.988 46.9371 109.011 45.7872 109.208 44.3597C109.461 42.5204 111.033 41.1504 112.89 41.1504H114.462ZM113.5 68C117.09 68 120 65.0899 120 61.5C120 57.9101 117.09 55 113.5 55C109.91 55 107 57.9101 107 61.5C107 65.0899 109.91 68 113.5 68Z" fill="#CFDFE2"/><path fill-rule="evenodd" clip-rule="evenodd" d="M114.462 41.1504C116.412 41.1504 118.063 42.589 118.329 44.5204C118.529 45.9679 119.541 47.1464 120.828 47.8383C121.101 47.9848 121.369 48.1393 121.631 48.3013C122.871 49.0667 124.393 49.3513 125.743 48.802C127.548 48.0672 129.619 48.7772 130.594 50.4653L131.395 51.8532C132.315 53.4465 131.918 55.4742 130.465 56.6031C129.335 57.4813 128.855 58.933 128.959 60.3603C128.986 60.7366 129 61.1167 129 61.5C129 61.6449 128.998 61.7894 128.994 61.9333C128.958 63.2705 129.443 64.6052 130.499 65.4261C131.933 66.5404 132.325 68.5419 131.417 70.1146L130.311 72.0308C129.499 73.4367 127.774 74.028 126.271 73.416C125.075 72.9295 123.723 73.2223 122.684 73.9877C121.942 74.5341 121.15 75.016 120.316 75.4251C119.239 75.9531 118.406 76.9225 118.242 78.1107C118.026 79.681 116.683 80.8506 115.098 80.8506H112.269C110.768 80.8506 109.498 79.7432 109.293 78.2565C109.132 77.092 108.296 76.152 107.221 75.6754C106.197 75.2212 105.232 74.6593 104.339 74.0042C103.386 73.3048 102.147 73.0474 101.052 73.493C99.6574 74.0606 98.0579 73.5121 97.3051 72.2083L95.9122 69.7957C95.1096 68.4055 95.4559 66.6362 96.7234 65.6511C97.678 64.9092 98.1073 63.6953 98.0313 62.4887C98.0108 62.1617 98.0003 61.8321 98.0003 61.5C98.0003 60.9313 98.0309 60.3698 98.0906 59.817C98.2305 58.5212 97.8033 57.191 96.7742 56.3912C95.4782 55.384 95.1241 53.575 95.9448 52.1535L97.0188 50.2933C97.9363 48.7041 99.8858 48.0356 101.585 48.7274C102.839 49.2376 104.253 48.9859 105.407 48.2783C105.823 48.0229 106.252 47.7867 106.693 47.5708C107.988 46.9371 109.011 45.7872 109.208 44.3597C109.461 42.5204 111.033 41.1504 112.89 41.1504H114.462ZM113.5 68C117.09 68 120 65.0899 120 61.5C120 57.9101 117.09 55 113.5 55C109.91 55 107 57.9101 107 61.5C107 65.0899 109.91 68 113.5 68Z" fill="url(#mobile_paint2_radial_3575_8422)"/><path fill-rule="evenodd" clip-rule="evenodd" d="M82.9147 16.6602C84.0748 15.7538 85.7259 15.8425 86.7823 16.8679C87.5741 17.6364 88.7246 17.867 89.8121 17.6803C90.0424 17.6407 90.2735 17.6082 90.505 17.5826C91.5986 17.4616 92.6368 16.9231 93.1845 15.9689C93.9172 14.6923 95.4795 14.1521 96.8443 14.7035L97.9665 15.1569C99.2546 15.6773 99.9611 17.0684 99.6216 18.4155C99.3575 19.4634 99.7467 20.5505 100.472 21.3515C100.663 21.5628 100.848 21.7825 101.027 22.0107C101.094 22.097 101.16 22.184 101.225 22.2717C101.824 23.0843 102.734 23.6528 103.744 23.6502C105.115 23.6467 106.278 24.6553 106.469 26.013L106.701 27.6687C106.872 28.8824 106.121 30.0358 104.942 30.3706C104.005 30.6368 103.336 31.4395 103.074 32.3778C102.886 33.0479 102.639 33.7031 102.333 34.3345C101.937 35.1495 101.893 36.1136 102.347 36.8968C102.949 37.932 102.694 39.2521 101.75 39.9891L100.067 41.3044C99.1739 42.0021 97.9028 41.9339 97.0896 41.1445C96.4526 40.5262 95.5178 40.3557 94.6568 40.5716C93.8364 40.7774 93.0006 40.8919 92.1647 40.917C91.2724 40.9439 90.4153 41.367 89.9709 42.1412C89.405 43.1273 88.1982 43.5445 87.144 43.1186L85.1936 42.3306C84.0696 41.8765 83.453 40.6626 83.7493 39.487C83.9725 38.6017 83.6635 37.6797 83.0573 36.997C82.8931 36.812 82.7337 36.6208 82.5793 36.4232C82.3151 36.0849 82.0723 35.7367 81.8509 35.3801C81.3315 34.5438 80.4586 33.9507 79.4742 33.9533C78.2344 33.9564 77.1824 33.0443 77.0098 31.8166L76.7843 30.2114C76.5913 28.8388 77.4408 27.5344 78.7742 27.1557C79.7575 26.8765 80.4823 26.069 80.8399 25.1114C80.9689 24.766 81.1144 24.426 81.2764 24.0926C81.752 23.1138 81.8263 21.9539 81.2798 21.0129C80.5757 19.8005 80.8741 18.2545 81.9789 17.3913L82.9147 16.6602ZM94.8241 33.0851C96.9603 31.4161 97.339 28.3313 95.67 26.1951C94.0011 24.0589 90.9163 23.6801 88.7801 25.3491C86.6439 27.0181 86.2651 30.1029 87.9341 32.2391C89.6031 34.3753 92.6879 34.754 94.8241 33.0851Z" fill="url(#mobile_paint3_linear_3575_8422)"/><defs><filter id="mobile_filter0_bd_3575_8422" x="0" y="39" width="148" height="128" filterUnits="userSpaceOnUse" color-interpolation-filters="sRGB"><feFlood flood-opacity="0" result="BackgroundImageFix"/><feGaussianBlur in="BackgroundImage" stdDeviation="8"/><feComposite in2="SourceAlpha" operator="in" result="effect1_backgroundBlur_3575_8422"/><feColorMatrix in="SourceAlpha" type="matrix" values="0 0 0 0 0 0 0 0 0 0 0 0 0 0 0 0 0 0 127 0" result="hardAlpha"/><feOffset dx="4" dy="14"/><feGaussianBlur stdDeviation="12"/><feComposite in2="hardAlpha" operator="out"/><feColorMatrix type="matrix" values="0 0 0 0 0.149027 0 0 0 0 0.0681771 0 0 0 0 0.320833 0 0 0 0.1 0"/><feBlend mode="normal" in2="effect1_backgroundBlur_3575_8422" result="effect2_dropShadow_3575_8422"/><feBlend mode="normal" in="SourceGraphic" in2="effect2_dropShadow_3575_8422" result="shape"/></filter><filter id="mobile_filter1_bd_3575_8422" x="49.6983" y="-7.15853" width="94.9096" height="101.855" filterUnits="userSpaceOnUse" color-interpolation-filters="sRGB"><feFlood flood-opacity="0" result="BackgroundImageFix"/><feGaussianBlur in="BackgroundImage" stdDeviation="10.8235"/><feComposite in2="SourceAlpha" operator="in" result="effect1_backgroundBlur_3575_8422"/><feColorMatrix in="SourceAlpha" type="matrix" values="0 0 0 0 0 0 0 0 0 0 0 0 0 0 0 0 0 0 127 0" result="hardAlpha"/><feOffset dx="5.41176" dy="18.9412"/><feGaussianBlur stdDeviation="16.2353"/><feComposite in2="hardAlpha" operator="out"/><feColorMatrix type="matrix" values="0 0 0 0 0.149027 0 0 0 0 0.0681771 0 0 0 0 0.320833 0 0 0 0.3 0"/><feBlend mode="normal" in2="effect1_backgroundBlur_3575_8422" result="effect2_dropShadow_3575_8422"/><feBlend mode="normal" in="SourceGraphic" in2="effect2_dropShadow_3575_8422" result="shape"/></filter><linearGradient id="mobile_paint0_linear_3575_8422" x1="24.5" y1="130.5" x2="115.5" y2="134" gradientUnits="userSpaceOnUse"><stop stop-color="#7B6F77"/><stop offset="1" stop-color="#5F575A"/></linearGradient><linearGradient id="mobile_paint1_linear_3575_8422" x1="24" y1="125" x2="116" y2="130" gradientUnits="userSpaceOnUse"><stop stop-color="#958B91"/><stop offset="1" stop-color="#736A6D"/></linearGradient><radialGradient id="mobile_paint2_radial_3575_8422" cx="0" cy="0" r="1" gradientUnits="userSpaceOnUse" gradientTransform="translate(85.9964 19.6461) rotate(57.4421) scale(72.6163 70.2499)"><stop stop-color="#44FEF3"/><stop offset="1" stop-color="#ADDD7C"/></radialGradient><linearGradient id="mobile_paint3_linear_3575_8422" x1="82.4564" y1="17.0183" x2="100.914" y2="40.6427" gradientUnits="userSpaceOnUse"><stop stop-color="#857781"/><stop offset="1" stop-color="#746971"/></linearGradient></defs></svg>