<svg xmlns="http://www.w3.org/2000/svg" fill="none" viewBox="0 0 148 31" height="17"><path d="m.99 10.297 17.652-8.213C20.235 1.348 21.829.98 23.545.98c1.716 0 3.432.245 5.026.98-.123-.613-.613-1.103-1.103-1.47-.49-.368-1.104-.49-1.716-.49l-22.8 2.329a2.31 2.31 0 0 0-.981.245c-.368.123-.613.368-.858.613s-.368.613-.49.98C.5 4.536.5 4.904.5 5.272l.49 5.026Zm5.516 7.355 6.865-3.188 3.923 8.336 9.193-4.29c1.349-.613 2.452-1.839 3.065-3.31.49-1.471.49-3.064-.246-4.535-.613-1.471-1.838-2.452-3.31-3.065-1.47-.49-3.064-.49-4.535.123l-9.193 4.29-10.542 4.903 1.226 11.032c0 .368.122.736.367.981.123.368.368.613.613.858s.613.368.98.49c.369.123.736.123 1.104.123l6.374-.613-5.884-12.135Zm24.394 5.76c-.613.369-1.226.736-1.839.982L19.01 29.052l9.683-.981c.368 0 .736-.123.981-.368.368-.122.613-.367.858-.613.245-.245.368-.613.49-.98.123-.368.123-.736.123-1.104l-.245-1.593Zm6.864-18.631h6.742c3.678 0 5.394 1.348 5.394 5.148v2.82c0 3.677-1.226 5.393-4.903 5.393h-7.233V4.78Zm3.555 10.174h3.065c1.348 0 1.839-.858 1.839-2.207V9.93c0-1.716-.49-2.084-1.84-2.084H41.32v7.11Zm17.652-1.594v4.658h-3.555v-4.658l-4.658-8.58h4.045l2.33 5.148h.122l2.451-5.148h4.046l-4.781 8.58Zm9.561 4.658h-3.555V4.781h6.007l3.8 10.174h.122L74.661 4.78h3.555v13.238H72.21L68.532 7.845h-.122l.122 10.174Zm15.445-2.329-.612 2.33h-3.678L83.61 4.78h5.393l4.045 13.24h-3.555l-.735-2.33h-4.78Zm2.33-8.335-1.594 5.761h3.31l-1.717-5.761Zm14.096 2.574c3.923.245 4.903.736 4.903 3.8 0 2.207.123 4.29-5.76 4.29-3.433 0-5.64-.122-5.64-4.412h3.433c0 1.348.49 1.47 2.206 1.47s2.207-.122 2.207-1.225c0-1.104-.246-1.104-1.84-1.226h-.735c-3.31-.245-5.148-.245-5.148-4.045s2.084-4.046 5.639-4.046c2.942 0 5.393 0 5.393 3.678v.49h-3.432c0-1.348-.613-1.348-1.961-1.348-1.962 0-2.084.368-2.084 1.103 0 1.103.49 1.103 1.47 1.226l1.349.245Zm10.542.123h5.639v2.451h-5.639v2.574h6.129v2.942h-9.684V4.781h9.562v2.942h-6.007v2.329Zm12.381 7.967h-3.555V4.781h6.006l3.8 10.174h.123l-.245-10.174h3.555v13.238h-6.007l-3.8-10.174h-.122l.245 10.174Zm12.258-13.238h6.742c3.677 0 5.393 1.348 5.393 5.148v2.82c0 3.677-1.225 5.393-4.903 5.393h-7.232V4.78Zm3.432 10.174h3.065c1.348 0 1.838-.858 1.838-2.207V9.93c0-1.716-.49-2.084-1.838-2.084h-3.065v7.11ZM38.01 22.923c0-1.349.613-1.471 1.838-1.471 1.104 0 1.84 0 1.84 1.47h-.614c0-.858-.245-.98-1.226-.98-1.103 0-1.225.122-1.225.858 0 .98.49.858 1.348.858 1.226.123 1.839 0 1.839 1.348 0 1.471-.613 1.471-1.962 1.471-1.225 0-1.96-.122-1.838-1.593h.49c0 1.103.245 1.103 1.226 1.103 1.103 0 1.348 0 1.348-.98 0-.981-.49-.859-1.348-.859-.858 0-1.716.123-1.716-1.225Zm12.503 3.554H49.9v-5.025h.613v5.025Zm12.38-2.451v1.103c0 1.226-.49 1.471-1.716 1.471h-.49c-1.348 0-1.961-.245-1.961-1.839v-1.593c0-1.349.613-1.716 1.47-1.716h1.35c.735 0 1.348.367 1.348 1.103v.368h-.613v-.246c0-.613-.245-.735-1.104-.735h-.612c-1.104 0-1.226.245-1.226 1.348v1.594c0 .98.367 1.226 1.226 1.226h.49c.98 0 1.226-.123 1.226-.981v-.613h-1.594v-.49h2.207Zm12.504 2.451h-.98l-2.82-4.535v4.535h-.613v-5.025h.98l2.82 4.658v-4.658h.613v5.025Zm8.948-.98-.368 1.103h-.612l1.838-5.026h.858L87.9 26.6h-.613l-.368-1.103h-2.574Zm1.349-3.555-1.104 3.064h2.207l-1.103-3.064Zm11.522 4.535h-.613v-4.535H95.01v-.49h3.8v.49h-1.594v4.535Zm13.729-5.025v3.677c0 1.348-.858 1.471-1.961 1.471-1.103 0-1.961 0-1.961-1.471v-3.677h.612v3.677c0 .858.246.98 1.471.98.981 0 1.471 0 1.471-.98v-3.677h.368Zm8.949 5.025h-.613v-5.025h2.329c1.103 0 1.593.367 1.593 1.47 0 .736-.122 1.226-.858 1.349.123 0 .245 0 .368.122.122 0 .245.123.245.246a.38.38 0 0 1 .123.245V26.6h-.613v-1.103c0-.613-.123-.98-.858-.98h-1.839v1.96h.123Zm1.716-2.451c.858 0 .98-.368.98-1.103 0-.613-.122-.858-.98-.858h-1.716v2.083l1.716-.122Zm10.296-.368h2.575v.49h-2.575v1.84h2.697v.49h-3.187v-5.026h3.187v.49h-2.697v1.716Zm10.542-.735c0-1.349.613-1.471 1.839-1.471 1.103 0 1.839 0 1.839 1.47h-.613c0-.858-.245-.98-1.226-.98-1.103 0-1.226.122-1.226.858 0 .98.491.858 1.349.858 1.225.123 1.838 0 1.838 1.348 0 1.471-.613 1.471-1.961 1.471-1.226 0-1.961-.122-1.839-1.593h.613c0 1.103.245 1.103 1.226 1.103 1.103 0 1.348 0 1.348-.98 0-.981-.49-.859-1.348-.859-.981 0-1.839.123-1.839-1.225Z"/></svg>