<svg xmlns="http://www.w3.org/2000/svg" fill="none" viewBox="0 0 129 16" height="17"><path d="m10.97 13.312.001-.001c.133-.098.258-.187.377-.274.433-.311.803-.577 1.272-1.024.186-.176.374-.35.564-.523.325-.296.594-.542.89-.87.35-.391.636-.73.876-1.013l.19-.224.001-.002.001-.001.239-.31v4.579l-.069.062-.015.014c-.05.043-.099.089-.145.136-.123.104-.373.273-.774.51-.402.237-.804.452-1.227.646-.441.192-.99.364-1.646.514a9.336 9.336 0 0 1-2.026.237c-2.602 0-4.84-.753-6.699-2.278C.922 11.985 0 10.187 0 8.072c0-1.688.67-3.316 2.024-4.886C3.374 1.621 5.102.655 7.235.29h.001c2.203-.405 4.79.016 7.72 1.253l.121 5.23c-.236-.311-.5-.736-.78-1.252v-.002a42.43 42.43 0 0 1-.481-.867l-.048-.086a27.049 27.049 0 0 0-.497-.884l-.047-.08c-.286-.478-.357-.597-.779-1.072-.456-.513-1.049-.929-1.606-1.256A3.928 3.928 0 0 0 8.971.721c-1.81-.066-3.097.527-3.862 1.794-.756 1.253-1.119 2.8-1.119 5.557 0 1.716.128 2.8.407 3.913.257 1.112.603 1.755 1.067 2.182.457.443.962.713 1.557.78.596.067 1.232-.102 1.833-.398.628-.309 1.473-.78 2.116-1.237ZM31.088 2.916C29.768 1.27 28.022.36 25.851.186c-2.193-.151-4.152.477-5.877 1.885-1.724 1.409-2.746 3.207-3.023 5.351-.298 2.145.213 4.052 1.554 5.677 1.341 1.646 3.087 2.556 5.259 2.708 2.15.173 4.11-.434 5.834-1.842 1.725-1.408 2.746-3.184 3.044-5.351.277-2.145-.234-4.051-1.554-5.698Zm-.342 3.86c-.33.652-.79 1.316-1.406 2.03-.535.62-1.235 1.276-2.2 2.067-1.15.94-2.25 1.663-3.272 2.151-.887.424-1.739.638-2.532.638-.097 0-.194-.003-.289-.01-.852-.056-1.553-.415-2.084-1.067-.564-.685-.749-1.427-.565-2.267.176-.878.638-1.772 1.372-2.661.801-.947 1.793-1.822 2.947-2.598.68-.479 1.371-.938 2.074-1.379.56-.329 1.16-.64 1.78-.925.593-.273 1.13-.442 1.596-.504.067-.006.152-.01.231-.01.332 0 .66.06 1.007.183.405.161.765.44 1.095.852.411.512.628 1.049.665 1.64.037.62-.1 1.229-.419 1.86Z"/><path d="M31.088 2.916C29.768 1.27 28.022.36 25.851.186c-2.193-.151-4.152.477-5.877 1.885-1.724 1.409-2.746 3.207-3.023 5.351-.298 2.145.213 4.052 1.554 5.677 1.341 1.646 3.087 2.556 5.259 2.708 2.15.173 4.11-.434 5.834-1.842 1.725-1.408 2.746-3.184 3.044-5.351.277-2.145-.234-4.051-1.554-5.698Zm-.342 3.86c-.33.652-.79 1.316-1.406 2.03-.535.62-1.235 1.276-2.2 2.067-1.15.94-2.25 1.663-3.272 2.151-.887.424-1.739.638-2.532.638-.097 0-.194-.003-.289-.01-.852-.056-1.553-.415-2.084-1.067-.564-.685-.749-1.427-.565-2.267.176-.878.638-1.772 1.372-2.661.801-.947 1.793-1.822 2.947-2.598.68-.479 1.371-.938 2.074-1.379.56-.329 1.16-.64 1.78-.925.593-.273 1.13-.442 1.596-.504.067-.006.152-.01.231-.01.332 0 .66.06 1.007.183.405.161.765.44 1.095.852.411.512.628 1.049.665 1.64.037.62-.1 1.229-.419 1.86Z"/><path d="m25.85.186.013-.164h-.002l-.01.164Zm-8.9 7.236.16.023.001-.001-.16-.022Zm1.555 5.677.125-.105-.001-.001-.124.106Zm5.259 2.708.013-.164h-.002l-.011.164Zm8.878-7.193.16.023v-.002l-.16-.021Zm-5.502 2.26.1.128h.001l-.101-.129Zm-8.177 1.711.125-.105-.125.105Zm-.565-2.267.157.036.001-.003-.158-.033Zm1.372-2.661-.122-.108-.001.002.123.106Zm2.947-2.598.09.137.001-.001.001-.001-.092-.135Zm2.074-1.379-.08-.142-.002.001-.002.001.084.14Zm3.376-1.43-.013-.163h-.008l.02.164Zm1.238.174.06-.153-.004-.002h-.003l-.053.155Zm1.095.852.126-.104-.126.104Zm.713-.464C29.864 1.13 28.077.2 25.863.022l-.025.328c2.13.17 3.834 1.06 5.125 2.67l.25-.208ZM25.861.022c-2.233-.154-4.232.487-5.988 1.921l.202.257C21.77.817 23.687.202 25.84.35l.021-.328Zm-5.988 1.921c-1.755 1.433-2.8 3.269-3.082 5.458l.32.043c.271-2.1 1.27-3.861 2.964-5.244l-.202-.257ZM16.791 7.4c-.304 2.19.218 4.143 1.59 5.805l.248-.211c-1.31-1.588-1.81-3.447-1.518-5.548l-.32-.046Zm1.59 5.805c1.37 1.681 3.157 2.612 5.372 2.767l.022-.328c-2.128-.149-3.833-1.038-5.145-2.65l-.25.21Zm5.37 2.767c2.192.176 4.191-.443 5.948-1.877l-.202-.257c-1.693 1.382-3.611 1.976-5.72 1.806l-.026.328Zm5.948-1.877c1.755-1.434 2.8-3.247 3.104-5.457l-.32-.046c-.293 2.123-1.292 3.863-2.986 5.246l.202.257Zm3.104-5.459c.282-2.188-.24-4.14-1.59-5.823l-.25.208c1.291 1.61 1.79 3.471 1.52 5.573l.32.042Zm-2.2-1.934c-.323.637-.775 1.29-1.385 1.996l.243.217c.623-.721 1.091-1.396 1.429-2.062l-.288-.151Zm-1.385 1.996c-.526.61-1.218 1.26-2.18 2.048l.203.257c.97-.795 1.677-1.458 2.22-2.088l-.243-.217Zm-2.18 2.048c-1.141.934-2.231 1.65-3.239 2.13l.138.298c1.036-.495 2.148-1.226 3.304-2.171l-.203-.257Zm-3.239 2.13c-.87.416-1.698.623-2.463.623v.329c.822 0 1.697-.223 2.6-.654l-.137-.298Zm-2.463.623a4.2 4.2 0 0 1-.278-.01l-.022.329c.1.007.2.01.3.01v-.329Zm-.278-.01c-.81-.053-1.469-.392-1.97-1.008l-.249.21c.56.688 1.303 1.067 2.197 1.127l.022-.328Zm-1.97-1.008c-.534-.648-.705-1.338-.533-2.127l-.315-.07c-.195.892.004 1.685.6 2.408l.247-.211Zm-.532-2.13c.17-.843.616-1.713 1.338-2.587l-.247-.212c-.747.904-1.224 1.822-1.408 2.734l.317.066Zm1.337-2.586c.79-.934 1.77-1.799 2.913-2.568l-.178-.274c-1.165.784-2.169 1.668-2.98 2.627l.245.215Zm2.916-2.57a45.58 45.58 0 0 1 2.067-1.374l-.17-.28c-.705.442-1.4.903-2.08 1.384l.183.27Zm2.063-1.371a20.045 20.045 0 0 1 1.765-.918l-.133-.3c-.612.281-1.21.592-1.793.933l.161.285Zm1.765-.918c.585-.269 1.106-.432 1.55-.491l-.041-.326c-.486.064-1.039.24-1.642.517l.133.3Zm1.542-.49c.064-.005.144-.009.22-.009v-.329c-.084 0-.173.004-.245.01l.025.327Zm.22-.009c.31 0 .622.056.953.173l.106-.31a3.143 3.143 0 0 0-1.06-.192v.33Zm.947.17c.374.15.713.41 1.03.804l.25-.208c-.345-.43-.727-.728-1.162-.901l-.118.306Zm1.03.804c.39.489.593.994.627 1.547l.323-.02c-.039-.63-.271-1.2-.7-1.735l-.25.208Zm.627 1.547c.036.586-.093 1.165-.4 1.774l.287.15c.33-.653.476-1.29.436-1.944l-.323.02Zm29.722 3.041h4.78c1.217 0 2.218-.384 2.99-1.126.772-.745 1.145-1.59 1.145-2.562 0-1.1-.435-2.008-1.331-2.708-.897-.7-2.134-1.066-3.72-1.066h-9.244v15h3.48V1.026l2.677-.022c.486 0 1.247 0 1.75.133.493.131.897.276 1.353.563.452.285.735.496 1.02 1.011.287.515.365.977.365 1.636 0 .33-.032.574-.102.8a3.563 3.563 0 0 1-.312.675 2.55 2.55 0 0 1-1.06 1.051c-.436.266-.819.385-1.226.493-.413.111-.91.151-1.277.151h-1.599l-.002.384V7.9c-.02.722.146 1.401.48 2.062l.002.002c.316.664.694 1.197 1.09 1.579a42.9 42.9 0 0 0 1.508 1.362l.002.001c.574.52 1.004.935 1.263 1.243l1.147 1.358h4.246a5.868 5.868 0 0 0-1.235-2.399c-.648-.744-1.484-1.234-2.533-1.468l-5.657-3.672Zm0 0v.082c0 .227.051.508.145.779.094.27.232.535.412.73.162.197.286.32.434.426.135.097.288.18.502.296l.055.03c.533.288 1.03.502 1.525.655.492.174.963.305 1.412.413h.001l1.171.26-5.657-3.671Zm24.254 7.539h-.593L91.116 2.5l.02-.04-.021-.038A36.8 36.8 0 0 1 91 2.205a7.74 7.74 0 0 0-.25-.459l-.002-.002-.001-.002c-.11-.156-.324-.374-.591-.646l-.014-.015a3.536 3.536 0 0 0-.75-.574h4.667l7.519 15h-4.055l-2.366-4.892H87.49l-.023.044-2.488 4.849Zm6.406-12.676-3.65 7.2h7.19l-3.54-7.2ZM114.093.507l.599 5.237c-.771-.948-1.777-2.026-2.983-3.233-1.307-1.286-2.135-1.487-2.484-1.487h-.592v14.484h-3.223V1.024h-.549c-.349 0-1.177.2-2.484 1.487-1.205 1.186-2.211 2.263-2.982 3.228l.598-5.232h14.1ZM75.03 15.132l3.561-.479-.01-.081.035.074 6.123-3.063-2.287 3.925H71.53V.507h12.869v3.818a13.326 13.326 0 0 1-1.678-.974c-.21-.141-.417-.287-.621-.437a11.57 11.57 0 0 0-1.453-.916 18.124 18.124 0 0 1-.604-.344h-.002v-.001c-.763-.421-1.857-.564-2.481-.564h-2.53v8.936l.13-.099c.085-.065.169-.126.252-.188.5-.37.987-.728 1.597-1.641l.014-.021v-.003l.146-.246.01-.015c.522-.876.942-1.468 1.227-1.802h4.322l-7.657 4.46-.04.024v4.638Zm-40.42-3.258c-.398-.404-.874-.739-1.32-.887.446-.148.922-.483 1.32-.888.397-.404.726-.888.872-1.343.145.455.474.938.872 1.343s.873.74 1.32.888c-.447.148-.922.483-1.32.888-.398.404-.727.888-.872 1.342-.146-.454-.475-.938-.873-1.343Zm0-6.066c-.398-.404-.874-.74-1.32-.887.446-.149.922-.483 1.32-.888.397-.405.726-.888.872-1.343.145.454.474.938.872 1.343s.873.74 1.32.888c-.447.148-.922.483-1.32.887-.398.405-.727.889-.872 1.343-.146-.454-.475-.938-.873-1.343Zm14.71 7.504v-.001c.133-.098.258-.187.377-.274.433-.311.803-.577 1.272-1.024.186-.176.374-.35.564-.523.325-.296.594-.542.89-.87.35-.391.636-.73.876-1.013l.19-.224V9.38l.002-.001.239-.31v4.579l-.069.062-.015.014c-.05.043-.098.089-.145.136-.123.104-.373.273-.774.51-.402.237-.804.452-1.227.646-.44.192-.989.364-1.645.514a9.336 9.336 0 0 1-2.027.237c-2.603 0-4.84-.753-6.699-2.278-1.857-1.504-2.78-3.302-2.78-5.417 0-1.688.671-3.316 2.024-4.886C41.723 1.621 43.452.655 45.585.29c2.203-.405 4.79.016 7.72 1.253l.121 5.23c-.236-.311-.5-.736-.78-1.252v-.002a42.832 42.832 0 0 1-.481-.867l-.048-.086a26.502 26.502 0 0 0-.497-.884l-.047-.08c-.286-.478-.356-.597-.779-1.072-.455-.513-1.049-.929-1.606-1.256A3.929 3.929 0 0 0 47.32.721c-1.81-.066-3.097.527-3.862 1.794-.756 1.253-1.119 2.8-1.119 5.557 0 1.716.128 2.8.407 3.913.257 1.112.603 1.755 1.067 2.182.457.443.962.713 1.557.78.596.067 1.232-.102 1.833-.398.628-.309 1.473-.78 2.116-1.237Zm69.971 1.82 3.561-.479-.01-.081.036.074L129 11.582l-2.286 3.925H115.79v-15h12.869v3.818a13.322 13.322 0 0 1-1.678-.974c-.21-.141-.417-.287-.622-.437-.633-.465-1.031-.684-1.451-.916-.204-.11-.406-.225-.606-.344h-.001l-.001-.001c-.762-.421-1.856-.564-2.48-.564h-2.529v8.936l.129-.099c.085-.065.169-.126.252-.188.5-.37.987-.728 1.597-1.641l.014-.021v-.003c.05-.086.098-.166.147-.247l.008-.014c.523-.876.942-1.468 1.228-1.802h4.322l-7.657 4.46-.04.024v4.638Z"/></svg>