<svg class="flex lg:hidden" width="288" height="151" viewBox="0 0 288 151" fill="none" xmlns="http://www.w3.org/2000/svg"><rect y="31" width="140" height="36" rx="10" fill="#1D1520"/><circle cx="18" cy="45" r="3" stroke="#FF00BD" stroke-width="2"/><path d="M25 56L23.8243 53.9845C23.1075 52.7556 21.7919 52 20.3692 52H15.6308C14.2081 52 12.8925 52.7556 12.1757 53.9845L11 56" stroke="#FF00BD" stroke-width="2"/><path d="M24 42H27C28.1046 42 29 42.8954 29 44V48C29 49.1046 28.1046 50 27 50H26" stroke="#FF00BD" stroke-width="2"/><path d="M45.418 53.654C47.742 53.654 49.436 52.31 49.884 50.35H48.036C47.63 51.232 46.776 51.932 45.418 51.932C43.682 51.932 42.352 50.574 42.352 48.726C42.352 46.892 43.682 45.52 45.418 45.52C46.776 45.52 47.63 46.22 48.036 47.102H49.884C49.436 45.142 47.742 43.812 45.418 43.812C42.618 43.812 40.518 45.912 40.518 48.726C40.518 51.54 42.618 53.654 45.418 53.654ZM54.1983 53.654C56.0183 53.668 57.2643 52.352 57.2643 50.672V46.92H55.4863V50.532C55.4863 51.512 55.0943 52.1 54.1983 52.086C53.3583 52.072 52.9383 51.484 52.9383 50.532V46.92H51.1603V50.658C51.1603 52.394 52.2523 53.64 54.1983 53.654ZM61.2535 53.654C62.5975 53.654 63.7455 52.884 63.7455 51.708C63.7455 49.188 60.3435 49.776 60.3435 48.754C60.3435 48.418 60.6375 48.166 61.0995 48.166C61.5755 48.166 61.8835 48.432 61.9535 48.824H63.6195C63.5215 47.536 62.5415 46.766 61.0995 46.78C59.6155 46.78 58.7055 47.662 58.7055 48.754C58.7055 51.302 62.0655 50.644 62.0655 51.708C62.0655 52.03 61.7575 52.268 61.2535 52.268C60.7635 52.268 60.3155 52.03 60.2315 51.526H58.5375C58.6355 52.772 59.7275 53.654 61.2535 53.654ZM69.1695 46.92H67.2515V44.694H65.4735V46.92H64.2835V48.334H65.4735V51.022C65.4735 52.716 66.4815 53.612 67.9655 53.612C68.3155 53.612 68.6375 53.556 69.0015 53.458V52.016C68.7355 52.03 68.5255 52.03 68.4415 52.03C67.5595 52.03 67.2515 51.638 67.2515 50.784V48.334H69.1695V46.92ZM73.4233 53.654C75.4673 53.654 76.9373 52.156 76.9373 50.21C76.9373 48.264 75.4673 46.78 73.4233 46.78C71.3792 46.78 69.9093 48.264 69.9093 50.21C69.9093 52.156 71.3792 53.654 73.4233 53.654ZM73.4233 52.1C72.4013 52.1 71.6593 51.33 71.6593 50.21C71.6593 49.104 72.4013 48.32 73.4233 48.32C74.4453 48.32 75.1873 49.104 75.1873 50.21C75.1873 51.33 74.4453 52.1 73.4233 52.1ZM79.8445 53.5V49.902C79.8445 48.936 80.2365 48.334 81.0625 48.334C81.8885 48.334 82.2805 48.936 82.2805 49.902V53.5H84.0585V49.902C84.0585 48.936 84.4505 48.334 85.2765 48.334C86.1025 48.334 86.4945 48.936 86.4945 49.902V53.5H88.2725V49.762C88.2725 47.942 87.2645 46.78 85.3885 46.78C84.0865 46.78 83.4005 47.564 83.1765 47.97H83.1485C82.9245 47.564 82.2525 46.78 80.9505 46.78C79.0745 46.78 78.0665 47.942 78.0665 49.762V53.5H79.8445ZM96.0833 50.21C96.0833 48.25 94.6973 46.78 92.7793 46.78C90.8053 46.78 89.4053 48.236 89.4053 50.21C89.4053 52.198 90.7773 53.654 92.8213 53.654C94.1513 53.654 95.4813 52.968 95.8873 51.512H94.2493C93.9833 51.974 93.5493 52.184 92.7793 52.184C91.9253 52.184 91.2953 51.708 91.0853 50.812H96.0553C96.0833 50.56 96.0833 50.462 96.0833 50.21ZM92.7793 48.25C93.6333 48.25 94.3053 48.81 94.4173 49.58H91.0713C91.2673 48.782 91.8973 48.25 92.7793 48.25ZM98.9988 53.5V49.818C98.9988 48.908 99.4188 48.46 100.399 48.46C100.483 48.46 100.665 48.46 100.875 48.474V46.878C100.581 46.808 100.329 46.78 99.9928 46.78C98.1448 46.78 97.2208 48.04 97.2208 49.622V53.5H98.9988ZM104.47 53.654C105.814 53.654 106.962 52.884 106.962 51.708C106.962 49.188 103.56 49.776 103.56 48.754C103.56 48.418 103.854 48.166 104.316 48.166C104.792 48.166 105.1 48.432 105.17 48.824H106.836C106.738 47.536 105.758 46.766 104.316 46.78C102.832 46.78 101.922 47.662 101.922 48.754C101.922 51.302 105.282 50.644 105.282 51.708C105.282 52.03 104.974 52.268 104.47 52.268C103.98 52.268 103.532 52.03 103.448 51.526H101.754C101.852 52.772 102.944 53.654 104.47 53.654Z" fill="white"/><rect y="73" width="140" height="36" rx="10" fill="#1D1520"/><circle cx="16.5" cy="86.5" r="3.5" stroke="#FF00BD" stroke-width="2"/><path d="M24 99L22.6056 96.2111C21.928 94.856 20.543 94 19.0279 94H13.9721C12.457 94 11.072 94.856 10.3944 96.2111L9 99" stroke="#FF00BD" stroke-width="2"/><circle cx="23.5" cy="88.5" r="2.5" stroke="#FF00BD" stroke-width="2"/><path d="M26.3335 95V95C27.1591 95 27.9226 95.4385 28.3387 96.1517L30.0002 99" stroke="#FF00BD" stroke-width="2"/><path d="M42.884 95.5V85.952H41.092V95.5H42.884ZM46.5125 95.5V91.902C46.5125 90.936 46.9465 90.334 47.8145 90.334C48.6825 90.334 49.1165 90.936 49.1165 91.902V95.5H50.8805V91.762C50.8805 90.026 49.7745 88.78 47.8145 88.78C45.8405 88.78 44.7345 90.026 44.7345 91.762V95.5H46.5125ZM56.6188 88.92H54.7008V86.694H52.9228V88.92H51.7328V90.334H52.9228V93.022C52.9228 94.716 53.9308 95.612 55.4148 95.612C55.7648 95.612 56.0868 95.556 56.4508 95.458V94.016C56.1848 94.03 55.9748 94.03 55.8908 94.03C55.0088 94.03 54.7008 93.638 54.7008 92.784V90.334H56.6188V88.92ZM64.0365 92.21C64.0365 90.25 62.6505 88.78 60.7325 88.78C58.7585 88.78 57.3585 90.236 57.3585 92.21C57.3585 94.198 58.7305 95.654 60.7745 95.654C62.1045 95.654 63.4345 94.968 63.8405 93.512H62.2025C61.9365 93.974 61.5025 94.184 60.7325 94.184C59.8785 94.184 59.2485 93.708 59.0385 92.812H64.0085C64.0365 92.56 64.0365 92.462 64.0365 92.21ZM60.7325 90.25C61.5865 90.25 62.2585 90.81 62.3705 91.58H59.0245C59.2205 90.782 59.8505 90.25 60.7325 90.25ZM66.952 95.5V91.818C66.952 90.908 67.372 90.46 68.352 90.46C68.436 90.46 68.618 90.46 68.828 90.474V88.878C68.534 88.808 68.282 88.78 67.946 88.78C66.098 88.78 65.174 90.04 65.174 91.622V95.5H66.952ZM71.7235 95.5V91.902C71.7235 90.936 72.1575 90.334 73.0255 90.334C73.8935 90.334 74.3275 90.936 74.3275 91.902V95.5H76.0915V91.762C76.0915 90.026 74.9855 88.78 73.0255 88.78C71.0515 88.78 69.9455 90.026 69.9455 91.762V95.5H71.7235ZM82.4597 89.956C82.0817 89.214 81.3117 88.78 80.2757 88.78C78.7497 88.78 77.2237 89.942 77.2237 92.21C77.2237 94.478 78.7497 95.654 80.2757 95.654C81.2977 95.654 82.0677 95.22 82.4457 94.492L82.5577 95.5H84.1257V88.92H82.6137L82.4597 89.956ZM80.7377 94.1C79.7577 94.1 78.9737 93.386 78.9737 92.21C78.9737 91.062 79.7437 90.334 80.7377 90.334C81.5497 90.334 82.4177 91.006 82.4177 92.21C82.4177 93.484 81.5777 94.1 80.7377 94.1ZM87.8352 95.5V85.952H86.0712V95.5H87.8352ZM97.1149 88.92H95.1969V86.694H93.4189V88.92H92.2289V90.334H93.4189V93.022C93.4189 94.716 94.4269 95.612 95.9109 95.612C96.2609 95.612 96.5829 95.556 96.9469 95.458V94.016C96.6809 94.03 96.4709 94.03 96.3869 94.03C95.5049 94.03 95.1969 93.638 95.1969 92.784V90.334H97.1149V88.92ZM104.533 92.21C104.533 90.25 103.147 88.78 101.229 88.78C99.2546 88.78 97.8546 90.236 97.8546 92.21C97.8546 94.198 99.2266 95.654 101.271 95.654C102.601 95.654 103.931 94.968 104.337 93.512H102.699C102.433 93.974 101.999 94.184 101.229 94.184C100.375 94.184 99.7446 93.708 99.5346 92.812H104.505C104.533 92.56 104.533 92.462 104.533 92.21ZM101.229 90.25C102.083 90.25 102.755 90.81 102.867 91.58H99.5206C99.7166 90.782 100.347 90.25 101.229 90.25ZM110.528 89.956C110.15 89.214 109.38 88.78 108.344 88.78C106.818 88.78 105.292 89.942 105.292 92.21C105.292 94.478 106.818 95.654 108.344 95.654C109.366 95.654 110.136 95.22 110.514 94.492L110.626 95.5H112.194V88.92H110.682L110.528 89.956ZM108.806 94.1C107.826 94.1 107.042 93.386 107.042 92.21C107.042 91.062 107.812 90.334 108.806 90.334C109.618 90.334 110.486 91.006 110.486 92.21C110.486 93.484 109.646 94.1 108.806 94.1ZM115.638 95.5V91.902C115.638 90.936 116.03 90.334 116.856 90.334C117.682 90.334 118.074 90.936 118.074 91.902V95.5H119.852V91.902C119.852 90.936 120.244 90.334 121.07 90.334C121.896 90.334 122.288 90.936 122.288 91.902V95.5H124.066V91.762C124.066 89.942 123.058 88.78 121.182 88.78C119.88 88.78 119.194 89.564 118.97 89.97H118.942C118.718 89.564 118.046 88.78 116.744 88.78C114.868 88.78 113.86 89.942 113.86 91.762V95.5H115.638ZM128.054 95.654C129.398 95.654 130.546 94.884 130.546 93.708C130.546 91.188 127.144 91.776 127.144 90.754C127.144 90.418 127.438 90.166 127.9 90.166C128.376 90.166 128.684 90.432 128.754 90.824H130.42C130.322 89.536 129.342 88.766 127.9 88.78C126.416 88.78 125.506 89.662 125.506 90.754C125.506 93.302 128.866 92.644 128.866 93.708C128.866 94.03 128.558 94.268 128.054 94.268C127.564 94.268 127.116 94.03 127.032 93.526H125.338C125.436 94.772 126.528 95.654 128.054 95.654Z" fill="white"/><rect y="115" width="140" height="36" rx="10" fill="#1D1520"/><circle cx="20" cy="128" r="4" stroke="#FF00BD" stroke-width="2"/><path d="M29 142L27.1056 138.211C26.428 136.856 25.043 136 23.5279 136H16.4721C14.957 136 13.572 136.856 12.8944 138.211L11 142" stroke="#FF00BD" stroke-width="2"/><path d="M44.9 127.952H40.98V137.5H42.772V133.986H44.9C46.636 133.986 48.092 132.922 48.092 130.962C48.092 129.002 46.636 127.952 44.9 127.952ZM42.772 132.292V129.646H44.634C45.614 129.646 46.272 130.108 46.272 130.962C46.272 131.816 45.614 132.292 44.62 132.292H42.772ZM53.7214 131.956C53.3434 131.214 52.5734 130.78 51.5374 130.78C50.0114 130.78 48.4854 131.942 48.4854 134.21C48.4854 136.478 50.0114 137.654 51.5374 137.654C52.5594 137.654 53.3294 137.22 53.7074 136.492L53.8194 137.5H55.3874V130.92H53.8754L53.7214 131.956ZM51.9994 136.1C51.0194 136.1 50.2354 135.386 50.2354 134.21C50.2354 133.062 51.0054 132.334 51.9994 132.334C52.8114 132.334 53.6794 133.006 53.6794 134.21C53.6794 135.484 52.8394 136.1 51.9994 136.1ZM58.8309 137.5V133.818C58.8309 132.908 59.2509 132.46 60.2309 132.46C60.3149 132.46 60.4969 132.46 60.7069 132.474V130.878C60.4129 130.808 60.1609 130.78 59.8249 130.78C57.9769 130.78 57.0529 132.04 57.0529 133.622V137.5H58.8309ZM66.0524 130.92H64.1344V128.694H62.3564V130.92H61.1664V132.334H62.3564V135.022C62.3564 136.716 63.3644 137.612 64.8484 137.612C65.1984 137.612 65.5204 137.556 65.8844 137.458V136.016C65.6184 136.03 65.4084 136.03 65.3244 136.03C64.4424 136.03 64.1344 135.638 64.1344 134.784V132.334H66.0524V130.92ZM68.9481 137.5V133.902C68.9481 132.936 69.3821 132.334 70.2501 132.334C71.1181 132.334 71.5521 132.936 71.5521 133.902V137.5H73.3161V133.762C73.3161 132.026 72.2101 130.78 70.2501 130.78C68.2761 130.78 67.1701 132.026 67.1701 133.762V137.5H68.9481ZM81.1263 134.21C81.1263 132.25 79.7403 130.78 77.8223 130.78C75.8483 130.78 74.4483 132.236 74.4483 134.21C74.4483 136.198 75.8203 137.654 77.8643 137.654C79.1943 137.654 80.5243 136.968 80.9303 135.512H79.2923C79.0263 135.974 78.5923 136.184 77.8223 136.184C76.9683 136.184 76.3383 135.708 76.1283 134.812H81.0983C81.1263 134.56 81.1263 134.462 81.1263 134.21ZM77.8223 132.25C78.6763 132.25 79.3483 132.81 79.4603 133.58H76.1143C76.3103 132.782 76.9403 132.25 77.8223 132.25ZM84.0418 137.5V133.818C84.0418 132.908 84.4618 132.46 85.4418 132.46C85.5258 132.46 85.7078 132.46 85.9178 132.474V130.878C85.6238 130.808 85.3718 130.78 85.0358 130.78C83.1878 130.78 82.2638 132.04 82.2638 133.622V137.5H84.0418ZM89.5133 137.654C90.8573 137.654 92.0053 136.884 92.0053 135.708C92.0053 133.188 88.6033 133.776 88.6033 132.754C88.6033 132.418 88.8973 132.166 89.3593 132.166C89.8353 132.166 90.1433 132.432 90.2133 132.824H91.8793C91.7813 131.536 90.8013 130.766 89.3593 130.78C87.8753 130.78 86.9653 131.662 86.9653 132.754C86.9653 135.302 90.3253 134.644 90.3253 135.708C90.3253 136.03 90.0173 136.268 89.5133 136.268C89.0233 136.268 88.5753 136.03 88.4913 135.526H86.7973C86.8953 136.772 87.9873 137.654 89.5133 137.654Z" fill="white"/><rect x="148" y="31" width="140" height="36" rx="10" fill="#1D1520"/><rect x="177" y="42" width="14" height="18" rx="2" transform="rotate(90 177 42)" stroke="#FF00BD" stroke-width="2"/><path d="M160 45H174V47H160V45Z" fill="#FF00BD"/><path d="M192.928 53.5L194.734 46.696C194.874 46.22 194.916 45.94 194.958 45.534H194.986C195.014 45.94 195.07 46.22 195.196 46.696L197.002 53.5H198.948L201.79 43.952H199.928L198.346 49.79C198.206 50.336 198.094 50.966 198.038 51.274H198.01C197.968 50.966 197.884 50.504 197.674 49.762L196.106 43.952H193.838L192.256 49.762C192.06 50.49 191.976 50.966 191.934 51.274H191.906C191.85 50.966 191.724 50.308 191.584 49.79L190.016 43.952H188.154L190.982 53.5H192.928ZM208.181 50.21C208.181 48.25 206.795 46.78 204.877 46.78C202.903 46.78 201.503 48.236 201.503 50.21C201.503 52.198 202.875 53.654 204.919 53.654C206.249 53.654 207.579 52.968 207.985 51.512H206.347C206.081 51.974 205.647 52.184 204.877 52.184C204.023 52.184 203.393 51.708 203.183 50.812H208.153C208.181 50.56 208.181 50.462 208.181 50.21ZM204.877 48.25C205.731 48.25 206.403 48.81 206.515 49.58H203.169C203.365 48.782 203.995 48.25 204.877 48.25ZM213.421 46.78C212.441 46.78 211.699 47.186 211.307 47.858V43.952H209.543V53.5H211.153L211.265 52.492C211.643 53.22 212.399 53.654 213.421 53.654C214.919 53.654 216.431 52.478 216.431 50.21C216.431 47.942 214.919 46.78 213.421 46.78ZM212.959 52.1C212.133 52.1 211.293 51.484 211.293 50.21C211.293 48.936 212.133 48.334 212.959 48.334C213.939 48.334 214.681 49.034 214.681 50.21C214.681 51.386 213.939 52.1 212.959 52.1ZM225.675 47.956C225.297 47.214 224.527 46.78 223.491 46.78C221.965 46.78 220.439 47.942 220.439 50.21C220.439 52.478 221.965 53.654 223.491 53.654C224.513 53.654 225.283 53.22 225.661 52.492L225.773 53.5H227.341V46.92H225.829L225.675 47.956ZM223.953 52.1C222.973 52.1 222.189 51.386 222.189 50.21C222.189 49.062 222.959 48.334 223.953 48.334C224.765 48.334 225.633 49.006 225.633 50.21C225.633 51.484 224.793 52.1 223.953 52.1ZM233.094 46.78C232.114 46.78 231.358 47.228 230.952 47.998L230.798 46.92H229.23V56.272H230.994V52.506C231.414 53.234 232.142 53.654 233.094 53.654C234.606 53.654 236.118 52.478 236.118 50.21C236.118 47.942 234.606 46.78 233.094 46.78ZM232.646 52.1C231.82 52.1 230.98 51.512 230.98 50.21C230.98 48.978 231.848 48.334 232.646 48.334C233.626 48.334 234.368 49.062 234.368 50.21C234.368 51.386 233.626 52.1 232.646 52.1ZM241.338 46.78C240.358 46.78 239.602 47.228 239.196 47.998L239.042 46.92H237.474V56.272H239.238V52.506C239.658 53.234 240.386 53.654 241.338 53.654C242.85 53.654 244.362 52.478 244.362 50.21C244.362 47.942 242.85 46.78 241.338 46.78ZM240.89 52.1C240.064 52.1 239.224 51.512 239.224 50.21C239.224 48.978 240.092 48.334 240.89 48.334C241.87 48.334 242.612 49.062 242.612 50.21C242.612 51.386 241.87 52.1 240.89 52.1ZM247.972 53.654C249.316 53.654 250.464 52.884 250.464 51.708C250.464 49.188 247.062 49.776 247.062 48.754C247.062 48.418 247.356 48.166 247.818 48.166C248.294 48.166 248.602 48.432 248.672 48.824H250.338C250.24 47.536 249.26 46.766 247.818 46.78C246.334 46.78 245.424 47.662 245.424 48.754C245.424 51.302 248.784 50.644 248.784 51.708C248.784 52.03 248.476 52.268 247.972 52.268C247.482 52.268 247.034 52.03 246.95 51.526H245.256C245.354 52.772 246.446 53.654 247.972 53.654Z" fill="white"/><rect x="148" y="73" width="140" height="36" rx="10" fill="#1D1520"/><rect x="162" y="82" width="12" height="18" rx="2" stroke="#FF00BD" stroke-width="2"/><path d="M166 95H170V97H166V95Z" fill="#FF00BD"/><path d="M190.772 95.5V89.102C190.772 88.892 190.772 88.724 190.744 88.472H190.772C190.842 88.696 190.912 88.892 191.01 89.13L193.586 95.388H195.07L197.646 89.13C197.744 88.892 197.814 88.696 197.87 88.472H197.898C197.87 88.724 197.87 88.892 197.87 89.102V95.5H199.676V85.952H197.198L194.874 91.678C194.664 92.196 194.468 92.7 194.342 93.148H194.314C194.188 92.7 193.992 92.196 193.782 91.678L191.458 85.952H188.98V95.5H190.772ZM204.552 95.654C206.596 95.654 208.066 94.156 208.066 92.21C208.066 90.264 206.596 88.78 204.552 88.78C202.508 88.78 201.038 90.264 201.038 92.21C201.038 94.156 202.508 95.654 204.552 95.654ZM204.552 94.1C203.53 94.1 202.788 93.33 202.788 92.21C202.788 91.104 203.53 90.32 204.552 90.32C205.574 90.32 206.316 91.104 206.316 92.21C206.316 93.33 205.574 94.1 204.552 94.1ZM213.297 88.78C212.317 88.78 211.575 89.186 211.183 89.858V85.952H209.419V95.5H211.029L211.141 94.492C211.519 95.22 212.275 95.654 213.297 95.654C214.795 95.654 216.307 94.478 216.307 92.21C216.307 89.942 214.795 88.78 213.297 88.78ZM212.835 94.1C212.009 94.1 211.169 93.484 211.169 92.21C211.169 90.936 212.009 90.334 212.835 90.334C213.815 90.334 214.557 91.034 214.557 92.21C214.557 93.386 213.815 94.1 212.835 94.1ZM218.322 87.87C218.924 87.87 219.428 87.394 219.428 86.792C219.428 86.19 218.924 85.7 218.322 85.7C217.706 85.7 217.202 86.19 217.202 86.792C217.202 87.394 217.706 87.87 218.322 87.87ZM219.204 95.5V88.92H217.44V95.5H219.204ZM222.765 95.5V85.952H221.001V95.5H222.765ZM230.863 92.21C230.863 90.25 229.477 88.78 227.559 88.78C225.585 88.78 224.185 90.236 224.185 92.21C224.185 94.198 225.557 95.654 227.601 95.654C228.931 95.654 230.261 94.968 230.667 93.512H229.029C228.763 93.974 228.329 94.184 227.559 94.184C226.705 94.184 226.075 93.708 225.865 92.812H230.835C230.863 92.56 230.863 92.462 230.863 92.21ZM227.559 90.25C228.413 90.25 229.085 90.81 229.197 91.58H225.851C226.047 90.782 226.677 90.25 227.559 90.25Z" fill="white"/><rect x="148" y="115" width="140" height="36" rx="10" fill="#1D1520"/><path d="M162.344 128.343C165.468 125.218 170.533 125.218 173.658 128.343L175.072 126.928C171.167 123.023 164.835 123.023 160.93 126.928L162.344 128.343ZM165.172 131.171C166.734 129.609 169.267 129.609 170.829 131.171L172.243 129.757C169.9 127.414 166.101 127.414 163.758 129.757L165.172 131.171Z" fill="#FF00BD"/><circle cx="168" cy="134" r="2" fill="#FF00BD"/><path d="M172.5 140H163.5V142H172.5V140ZM163.5 140C162.119 140 161 138.881 161 137.5H159C159 139.985 161.015 142 163.5 142V140ZM175 137.5C175 138.881 173.881 140 172.5 140V142C174.985 142 177 139.985 177 137.5H175ZM172.5 135C173.881 135 175 136.119 175 137.5H177C177 135.015 174.985 133 172.5 133V135ZM163.5 133C161.015 133 159 135.015 159 137.5H161C161 136.119 162.119 135 163.5 135V133Z" fill="#FF00BD"/><path d="M190.884 137.5V127.952H189.092V137.5H190.884ZM195.871 137.654C197.915 137.654 199.385 136.156 199.385 134.21C199.385 132.264 197.915 130.78 195.871 130.78C193.827 130.78 192.357 132.264 192.357 134.21C192.357 136.156 193.827 137.654 195.871 137.654ZM195.871 136.1C194.849 136.1 194.107 135.33 194.107 134.21C194.107 133.104 194.849 132.32 195.871 132.32C196.893 132.32 197.635 133.104 197.635 134.21C197.635 135.33 196.893 136.1 195.871 136.1ZM198.927 127.952V129.646H201.881V137.5H203.687V129.646H206.641V127.952H198.927Z" fill="white"/><path d="M109.476 1.088L107.46 5.168C107.284 5.536 107.172 5.792 107.076 6.144H107.044C106.932 5.792 106.836 5.536 106.644 5.168L104.628 1.088H102.34L106.02 8.096V12H108.084V8.112L111.796 1.088H109.476ZM115.081 12.176C117.417 12.176 119.097 10.464 119.097 8.24C119.097 6.016 117.417 4.32 115.081 4.32C112.745 4.32 111.065 6.016 111.065 8.24C111.065 10.464 112.745 12.176 115.081 12.176ZM115.081 10.4C113.913 10.4 113.065 9.52 113.065 8.24C113.065 6.976 113.913 6.08 115.081 6.08C116.249 6.08 117.097 6.976 117.097 8.24C117.097 9.52 116.249 10.4 115.081 10.4ZM123.859 12.176C125.939 12.192 127.363 10.688 127.363 8.768V4.48H125.331V8.608C125.331 9.728 124.883 10.4 123.859 10.384C122.899 10.368 122.419 9.696 122.419 8.608V4.48H120.387V8.752C120.387 10.736 121.635 12.16 123.859 12.176ZM131.123 12V7.792C131.123 6.752 131.603 6.24 132.723 6.24C132.819 6.24 133.027 6.24 133.267 6.256V4.432C132.931 4.352 132.643 4.32 132.259 4.32C130.147 4.32 129.091 5.76 129.091 7.568V12H131.123ZM143.59 12.176C146.246 12.176 148.182 10.64 148.694 8.4H146.582C146.118 9.408 145.142 10.208 143.59 10.208C141.606 10.208 140.086 8.656 140.086 6.544C140.086 4.448 141.606 2.88 143.59 2.88C145.142 2.88 146.118 3.68 146.582 4.688H148.694C148.182 2.448 146.246 0.927999 143.59 0.927999C140.39 0.927999 137.99 3.328 137.99 6.544C137.99 9.76 140.39 12.176 143.59 12.176ZM152.489 12V1.088H150.473V12H152.489ZM155.552 3.28C156.24 3.28 156.816 2.736 156.816 2.048C156.816 1.36 156.24 0.799999 155.552 0.799999C154.848 0.799999 154.272 1.36 154.272 2.048C154.272 2.736 154.848 3.28 155.552 3.28ZM156.56 12V4.48H154.544V12H156.56ZM165.494 8.24C165.494 6 163.91 4.32 161.718 4.32C159.462 4.32 157.862 5.984 157.862 8.24C157.862 10.512 159.43 12.176 161.766 12.176C163.286 12.176 164.806 11.392 165.27 9.728H163.398C163.094 10.256 162.598 10.496 161.718 10.496C160.742 10.496 160.022 9.952 159.782 8.928H165.462C165.494 8.64 165.494 8.528 165.494 8.24ZM161.718 6C162.694 6 163.462 6.64 163.59 7.52H159.766C159.99 6.608 160.71 6 161.718 6ZM168.826 12V7.888C168.826 6.784 169.322 6.096 170.314 6.096C171.306 6.096 171.802 6.784 171.802 7.888V12H173.818V7.728C173.818 5.744 172.554 4.32 170.314 4.32C168.058 4.32 166.794 5.744 166.794 7.728V12H168.826ZM180.376 4.48H178.184V1.936H176.152V4.48H174.792V6.096H176.152V9.168C176.152 11.104 177.304 12.128 179 12.128C179.4 12.128 179.768 12.064 180.184 11.952V10.304C179.88 10.32 179.64 10.32 179.544 10.32C178.536 10.32 178.184 9.872 178.184 8.896V6.096H180.376V4.48ZM184.485 12.176C186.021 12.176 187.333 11.296 187.333 9.952C187.333 7.072 183.445 7.744 183.445 6.576C183.445 6.192 183.781 5.904 184.309 5.904C184.853 5.904 185.205 6.208 185.285 6.656H187.189C187.077 5.184 185.957 4.304 184.309 4.32C182.613 4.32 181.573 5.328 181.573 6.576C181.573 9.488 185.413 8.736 185.413 9.952C185.413 10.32 185.061 10.592 184.485 10.592C183.925 10.592 183.413 10.32 183.317 9.744H181.381C181.493 11.168 182.741 12.176 184.485 12.176Z" fill="white"/></svg>