<svg class="mx-auto mb-12 hidden lg:block" width="67" height="14" viewBox="0 0 67 14" fill="none" xmlns="http://www.w3.org/2000/svg"><path d="M8.50237 0.723999L6.23437 5.314C6.03637 5.728 5.91037 6.016 5.80237 6.412H5.76637C5.64037 6.016 5.53237 5.728 5.31637 5.314L3.04837 0.723999H0.474367L4.61437 8.608V13H6.93637V8.626L11.1124 0.723999H8.50237ZM14.8077 13.198C17.4357 13.198 19.3257 11.272 19.3257 8.77C19.3257 6.268 17.4357 4.36 14.8077 4.36C12.1797 4.36 10.2897 6.268 10.2897 8.77C10.2897 11.272 12.1797 13.198 14.8077 13.198ZM14.8077 11.2C13.4937 11.2 12.5397 10.21 12.5397 8.77C12.5397 7.348 13.4937 6.34 14.8077 6.34C16.1217 6.34 17.0757 7.348 17.0757 8.77C17.0757 10.21 16.1217 11.2 14.8077 11.2ZM24.6837 13.198C27.0237 13.216 28.6257 11.524 28.6257 9.364V4.54H26.3397V9.184C26.3397 10.444 25.8357 11.2 24.6837 11.182C23.6037 11.164 23.0637 10.408 23.0637 9.184V4.54H20.7777V9.346C20.7777 11.578 22.1817 13.18 24.6837 13.198ZM32.8547 13V8.266C32.8547 7.096 33.3947 6.52 34.6547 6.52C34.7627 6.52 34.9967 6.52 35.2667 6.538V4.486C34.8887 4.396 34.5647 4.36 34.1327 4.36C31.7567 4.36 30.5687 5.98 30.5687 8.014V13H32.8547ZM51.759 13L47.313 0.723999H44.487L40.041 13H42.471L43.407 10.354H48.375L49.311 13H51.759ZM45.693 3.568C45.783 3.298 45.837 3.1 45.873 2.92H45.909C45.945 3.1 45.999 3.298 46.089 3.568L47.763 8.338H44.019L45.693 3.568ZM58.1682 0.723999H53.1282V13H55.4322V8.482H58.1682C60.4002 8.482 62.2722 7.114 62.2722 4.594C62.2722 2.074 60.4002 0.723999 58.1682 0.723999ZM55.4322 6.304V2.902H57.8262C59.0862 2.902 59.9322 3.496 59.9322 4.594C59.9322 5.692 59.0862 6.304 57.8082 6.304H55.4322ZM66.3164 13V0.723999H64.0124V13H66.3164Z" fill="white"/></svg>