<svg class="mt-[140px] hidden self-start lg:block" width="90" height="31" viewBox="0 0 90 31" fill="none" xmlns="http://www.w3.org/2000/svg"><rect y="0.5" width="55" height="30" rx="8" fill="#FF00BD"/><path d="M17.5105 14.746H13.0865V10.952H11.2945V20.5H13.0865V16.426H17.5105V20.5H19.3025V10.952H17.5105V14.746ZM20.4353 10.952V12.646H23.3893V20.5H25.1953V12.646H28.1493V10.952H20.4353ZM28.4606 10.952V12.646H31.4146V20.5H33.2206V12.646H36.1746V10.952H28.4606ZM41.232 10.952H37.312V20.5H39.104V16.986H41.232C42.968 16.986 44.424 15.922 44.424 13.962C44.424 12.002 42.968 10.952 41.232 10.952ZM39.104 15.292V12.646H40.966C41.946 12.646 42.604 13.108 42.604 13.962C42.604 14.816 41.946 15.292 40.952 15.292H39.104Z" fill="white"/><path d="M89.7071 16.2071C90.0976 15.8166 90.0976 15.1834 89.7071 14.7929L83.3431 8.42893C82.9526 8.03841 82.3195 8.03841 81.9289 8.42893C81.5384 8.81946 81.5384 9.45262 81.9289 9.84315L87.5858 15.5L81.9289 21.1569C81.5384 21.5474 81.5384 22.1805 81.9289 22.5711C82.3195 22.9616 82.9526 22.9616 83.3431 22.5711L89.7071 16.2071ZM55 16.5L89 16.5L89 14.5L55 14.5L55 16.5Z" fill="#705D76"/></svg>