<svg xmlns="http://www.w3.org/2000/svg" fill="none" viewBox="0 0 152 42" class="h-8 lg:h-11" role="img" aria-label="Illusory"><path d="M3.847 8.217a3.888 3.888 0 0 1-1.482-.277 3.728 3.728 0 0 1-1.244-.815 3.489 3.489 0 0 1-.833-1.154A3.338 3.338 0 0 1 0 4.598a3.35 3.35 0 0 1 .292-1.396c.196-.442.486-.841.85-1.173a3.74 3.74 0 0 1 1.235-.808c.465-.186.965-.28 1.47-.277a3.964 3.964 0 0 1 1.483.279c.47.186.895.46 1.25.806.371.329.666.727.866 1.169.2.442.302.919.299 1.4.002.471-.096.938-.288 1.373a3.489 3.489 0 0 1-.833 1.154c-.36.352-.792.63-1.27.819-.477.187-.99.28-1.507.273Zm3.428 3.215v20.734H.42V11.432h6.855ZM19.46 2.428v29.738h-6.856V3.437l6.855-1.01Zm12.184 0v29.738h-6.855V3.437l6.855-1.01Zm12.011 9.004v12.094a3.898 3.898 0 0 0 .998 2.789c.33.353.738.633 1.196.817a3.49 3.49 0 0 0 1.45.247 4.699 4.699 0 0 0 2.004-.419 4.638 4.638 0 0 0 1.634-1.29V11.431h6.848v20.734h-6.848v-3.379a8.765 8.765 0 0 1-3.03 2.748 8.01 8.01 0 0 1-3.869.94 7.276 7.276 0 0 1-2.825-.477 6.98 6.98 0 0 1-2.381-1.521 6.965 6.965 0 0 1-1.553-2.347 6.689 6.689 0 0 1-.472-2.736V11.432h6.848Zm17.687 18.605 3.016-4.368a25.161 25.161 0 0 0 3.89 1.628 11.01 11.01 0 0 0 3.131.46 4.767 4.767 0 0 0 2.285-.46c.24-.11.442-.28.587-.492a1.32 1.32 0 0 0 .23-.71 1.106 1.106 0 0 0-.118-.537 1.17 1.17 0 0 0-.366-.425 3.493 3.493 0 0 0-1.548-.522l-4.172-.728a9.185 9.185 0 0 1-4.802-2.06 5.272 5.272 0 0 1-1.245-1.806 5.05 5.05 0 0 1-.381-2.13 5.71 5.71 0 0 1 .576-2.77 6.032 6.032 0 0 1 1.853-2.209c1.63-1.208 3.866-1.813 6.71-1.813 1.532.004 3.055.207 4.527.604a19.75 19.75 0 0 1 4.34 1.766l-3.132 4.12a16.25 16.25 0 0 0-3.189-1.325 11.12 11.12 0 0 0-3.073-.44 4.066 4.066 0 0 0-1.924.378 1.228 1.228 0 0 0-.524.433 1.14 1.14 0 0 0-.199.632c-.013.187.025.374.11.544.084.17.214.315.375.424a4.932 4.932 0 0 0 1.757.522l4.1.687a9.641 9.641 0 0 1 4.953 2.108c.552.497.985 1.1 1.27 1.77.284.67.413 1.39.38 2.11a5.95 5.95 0 0 1-.724 2.83 6.824 6.824 0 0 1-1.938 2.28 9.987 9.987 0 0 1-3.008 1.484 12.34 12.34 0 0 1-3.724.543c-1.875.014-3.744-.2-5.561-.64a14.578 14.578 0 0 1-4.462-1.888Zm49.787 2.129V11.432h6.855v4.697a10.141 10.141 0 0 1 2.517-3.832 5.046 5.046 0 0 1 3.406-1.27 7.76 7.76 0 0 1 1.186.144c.378.09.747.216 1.099.377v5.591a7.386 7.386 0 0 0-1.446-.467 8.553 8.553 0 0 0-1.736-.179 6.029 6.029 0 0 0-2.849.687 5.925 5.925 0 0 0-2.169 1.868v13.118h-6.863Zm24.247 1.161.332-.762-8.034-21.133h7.55l4.338 13.379 5.062-13.38H152l-9.82 23.167c-1.012 2.353-2.232 4.02-3.659 5-1.446.975-3.391 1.47-5.901 1.47a13.315 13.315 0 0 1-1.373-.083c-.487-.052-.97-.132-1.447-.24v-5.46c.723.082 1.172.13 1.396.144h.636a4.322 4.322 0 0 0 2.264-.53 3.136 3.136 0 0 0 1.28-1.572ZM95.423 25.73c2.368 0 4.288-1.823 4.288-4.072 0-2.25-1.92-4.073-4.288-4.073-2.368 0-4.288 1.824-4.288 4.073 0 2.25 1.92 4.073 4.288 4.073Z"/><path d="M95.502 10.8c-2.262 0-4.474.637-6.356 1.831-1.881 1.195-3.347 2.892-4.213 4.878a10.359 10.359 0 0 0-.65 6.278 10.708 10.708 0 0 0 3.133 5.563c1.6 1.52 3.64 2.554 5.86 2.972a12 12 0 0 0 6.61-.62c2.09-.824 3.876-2.218 5.132-4.006a10.477 10.477 0 0 0 1.924-6.038 10.39 10.39 0 0 0-.871-4.157 10.83 10.83 0 0 0-2.48-3.523 11.483 11.483 0 0 0-3.711-2.354 11.96 11.96 0 0 0-4.377-.824Zm0 17.974c-1.945-.058-3.79-.832-5.146-2.16-1.355-1.327-2.112-3.104-2.112-4.952 0-1.85.757-3.625 2.112-4.953 1.355-1.327 3.2-2.102 5.147-2.16a7.612 7.612 0 0 1 4.693 1.608.363.363 0 0 1 .01.492.416.416 0 0 1-.51.085 6.796 6.796 0 0 0-1.713-.955 3.252 3.252 0 0 0-1.63.893 2.991 2.991 0 0 0-.822 1.607.41.41 0 0 1 .281.103.367.367 0 0 1 .02.53.407.407 0 0 1-.272.123c.102.625.408 1.204.875 1.656a3.233 3.233 0 0 0 1.729.857.377.377 0 0 1 .128-.26.418.418 0 0 1 .284-.104.407.407 0 0 1 .262.113c.07.067.11.157.114.251a3.285 3.285 0 0 0 1.696-.78c.47-.414.799-.954.943-1.548a6.458 6.458 0 0 0-.998-1.628.372.372 0 0 1-.119-.263.373.373 0 0 1 .239-.348.41.41 0 0 1 .43.076l.05.061a6.718 6.718 0 0 1 1.635 4.43c0 1.86-.766 3.645-2.136 4.974-1.37 1.329-3.232 2.095-5.19 2.135v.116Z"/><path fill="#000" d="M88.611 21.816c0 3.874 3.89 6.69 7.441 6.36 3.305-.302 5.279-3.015 5.474-3.338.51-.988.758-2.08.723-3.18a5.846 5.846 0 0 0-.615-2.568 3.213 3.213 0 0 1-.958 1.606 3.492 3.492 0 0 1-1.724.852v.124a3.11 3.11 0 0 1-.22 1.274 3.2 3.2 0 0 1-.728 1.091 3.417 3.417 0 0 1-1.119.734 3.656 3.656 0 0 1-3.848-.73 3.295 3.295 0 0 1-1.042-2.39c0-.896.375-1.755 1.042-2.389a3.656 3.656 0 0 1 2.516-.99 2.993 2.993 0 0 1 .803-1.62 3.26 3.26 0 0 1 1.62-.914 6.801 6.801 0 0 0-2.474-.501c-1.818.047-3.547.756-4.83 1.98-1.283 1.226-2.02 2.872-2.06 4.6Z"/><path d="M101.353 17.208a.397.397 0 0 0-.253-.2.418.418 0 0 0-.325.048.373.373 0 0 0-.162.424c.016.051.044.1.082.14l.05.061a6.133 6.133 0 0 1 1.483 3.977 6.165 6.165 0 0 1-1.13 3.55 6.662 6.662 0 0 1-3.017 2.356 7.055 7.055 0 0 1-3.886.366 6.843 6.843 0 0 1-3.445-1.746 6.296 6.296 0 0 1-1.843-3.27 6.09 6.09 0 0 1 .382-3.692 6.47 6.47 0 0 1 2.477-2.867 6.981 6.981 0 0 1 3.737-1.077c1.524 0 3.001.497 4.186 1.408.097.039.207.04.304.002a.387.387 0 0 0 .217-.201.378.378 0 0 0 0-.33 7.632 7.632 0 0 0-4.693-1.552c-1.48 0-2.927.416-4.158 1.198a7.201 7.201 0 0 0-2.757 3.19 6.778 6.778 0 0 0-.425 4.107 7.006 7.006 0 0 0 2.048 3.64 7.615 7.615 0 0 0 3.832 1.945 7.852 7.852 0 0 0 4.324-.405 7.413 7.413 0 0 0 3.359-2.618 6.86 6.86 0 0 0 1.261-3.949v-.055a6.693 6.693 0 0 0-1.648-4.45Z"/></svg>