<svg xmlns="http://www.w3.org/2000/svg" fill="none" viewBox="0 0 5184 1080" class="h-8 lg:h-11" role="img" aria-label="Copilot Travel"><rect/><path d="M2316.85 315.698h-76.93v70.659h76.93v-70.659ZM2316.85 415.497h-76.93V708.87h76.93V415.497Z"/><path d="M1976.37 415.497v18.733a125.57 125.57 0 0 1 76.94-24.649c89.46 0 153.09 62.773 153.09 152.603 0 89.831-63.63 152.602-153.09 152.602-27.67.43-54.7-8.233-76.94-24.649v118.534h-76.93V415.497h76.93Zm0 146.687c0 49.845 30.12 82.162 76.94 82.162 46.82 0 76.93-32.864 76.93-82.162 0-49.297-30.01-82.162-76.93-82.162-46.93 0-76.94 32.208-76.94 82.162ZM1570.17 562.184c0-89.173 63.63-152.603 153.1-152.603 89.46 0 153.09 63.43 153.09 152.603 0 89.174-63.63 152.602-153.09 152.602-89.47 0-153.1-62.771-153.1-152.602Zm229.7 0c0-49.954-30.11-82.162-76.93-82.162-46.82 0-76.93 32.208-76.93 82.162 0 49.955 30 82.162 76.93 82.162 46.93 0 76.93-32.317 76.93-82.162Z" clip-rule="evenodd"/><path d="M2372.36 708.87V315.698h76.93V708.87h-76.93Z"/><path d="M2642.06 409.581c-89.46 0-152.98 63.43-152.98 152.603 0 89.831 63.85 152.821 153.2 152.821s152.88-63.647 152.88-152.821c0-89.173-63.64-152.603-153.1-152.603Zm-.33 70.441c46.93 0 76.93 32.208 76.93 82.162h.55c0 49.845-30.55 82.162-77.48 82.162-46.93 0-76.93-32.207-76.93-82.162 0-49.954 30-82.162 76.93-82.162ZM3579.54 562.184c0-89.174 63.63-152.604 153.09-152.604a125.258 125.258 0 0 1 76.94 24.649v-18.732h76.93v293.372h-76.93v-18.732a125.91 125.91 0 0 1-76.94 24.648c-89.46.219-153.09-62.771-153.09-152.601Zm229.59 0c0-49.955-30.01-82.163-76.94-82.163-46.93 0-76.93 32.208-76.93 82.163 0 49.954 30.11 82.162 76.93 82.162 46.82 0 76.94-32.317 76.94-82.162Z" clip-rule="evenodd"/><path d="M4044.65 708.87h79.46l116.72-293.373h-82.43l-74.19 193.027-73.63-193.027h-82.43l116.5 293.373Z"/><path d="M4550.43 591.543h-223.11a71.392 71.392 0 0 0 26.33 41.086 71.819 71.819 0 0 0 46.65 14.674c24.18 0 45.28-5.915 58.25-26.4h85.06c-14.72 59.266-74.84 93.883-142.87 93.883-89.46 0-153.1-62.771-153.1-152.602 0-89.83 63.64-152.603 153.1-152.603s153.09 63.43 153.09 152.603c-.23 9.87-1.37 19.697-3.4 29.359Zm-221.35-64.635h142.88a75.547 75.547 0 0 0-27.67-36.555 75.864 75.864 0 0 0-43.77-13.889 75.918 75.918 0 0 0-43.78 13.889 75.528 75.528 0 0 0-27.66 36.555Z" clip-rule="evenodd"/><path d="M4592.41 315.698V708.87h76.93V315.698h-76.93ZM1455.87 620.683a72.566 72.566 0 0 1-25.57 18.035 72.847 72.847 0 0 1-30.81 5.628c-46.49 0-76.93-32.864-76.93-82.162 0-49.297 30.11-82.162 76.93-82.162a72.862 72.862 0 0 1 30.81 5.627 72.566 72.566 0 0 1 25.57 18.035h86.49c-21.98-57.295-74.84-94.103-142.87-94.103-89.46 0-153.09 63.43-153.09 152.603 0 89.174 63.63 152.602 153.09 152.602 68.58 0 121.77-36.589 142.87-94.103h-86.49ZM2995.4 415.497v70.33l-88.36-.109v113.931c0 25.745 12.97 38.672 39.45 38.672h48.91v70.988h-54.95c-73.42 0-109.91-36.809-109.91-109.55V315.698h76.94v99.799h87.92ZM3347.09 485.827v-70.33h-87.92v-99.799h-76.93v284.061c0 72.741 36.48 109.55 109.9 109.55h54.95v-70.988h-48.8c-26.48 0-39.45-12.927-39.45-38.672V485.718l88.25.109ZM3469.86 708.87V524.608c0-25.853 12.96-38.78 39.12-39.218h48.8v-70.331h-54.95c-73.27 0-109.91 36.516-109.91 109.549V708.87h76.94ZM812.717 501.438h164.855a69.787 69.787 0 0 0 49.158-20.342 69.35 69.35 0 0 0 20.41-49.002V296.581c0-16.067-6.4-31.477-17.8-42.838A60.886 60.886 0 0 0 986.365 236H657.642a305.71 305.71 0 0 0-116.727 23.111 304.933 304.933 0 0 0-98.959 65.897 303.832 303.832 0 0 0-66.109 98.638A303.071 303.071 0 0 0 352.659 540a303.058 303.058 0 0 0 23.188 116.352 303.83 303.83 0 0 0 66.109 98.64 304.946 304.946 0 0 0 98.959 65.896A305.73 305.73 0 0 0 657.642 844h328.723a60.886 60.886 0 0 0 42.975-17.744 60.472 60.472 0 0 0 17.8-42.837V648.016c0-9.121-1.8-18.153-5.3-26.58a69.432 69.432 0 0 0-15.11-22.532 69.71 69.71 0 0 0-22.6-15.056 69.887 69.887 0 0 0-26.668-5.286H812.607l30.553 127.186a9.62 9.62 0 0 1-1.819 8.154 9.686 9.686 0 0 1-7.524 3.677h-40.663a20.267 20.267 0 0 1-9.494-2.464 20.202 20.202 0 0 1-7.212-6.628l-73.195-113.165a36.78 36.78 0 0 0-13.306-12.293 36.905 36.905 0 0 0-17.577-4.467h-82.978a144.45 144.45 0 0 1-69.57-17.857 23.917 23.917 0 0 1-8.865-8.751 23.827 23.827 0 0 1-3.25-12.009 23.83 23.83 0 0 1 3.25-12.009 23.925 23.925 0 0 1 8.865-8.751 145.686 145.686 0 0 1 69.57-17.747h82.978a37.136 37.136 0 0 0 17.564-4.494 36.998 36.998 0 0 0 13.319-12.267l72.535-112.069a21.948 21.948 0 0 1 8.023-7.499 22.028 22.028 0 0 1 10.663-2.688h38.683a10.14 10.14 0 0 1 4.382 1.024 10.096 10.096 0 0 1 5.428 6.87c.329 1.477.32 3.01-.027 4.483l-30.223 126.64ZM4738.65 315.692h59.66v11.089h-23.56v65.011h-12.54v-65.011h-23.56v-11.089ZM4813.23 391.792v-76.1h16.25l24.43 59.901 23.99-59.901h15.92v76.1h-12.1v-55.988l-22.91 55.988h-10.57l-22.91-55.988v55.988h-12.1Z"/></svg>