<svg class="lg:hidden" width="55" height="51" viewBox="0 0 55 51" fill="none" xmlns="http://www.w3.org/2000/svg"><rect width="55" height="30" rx="8" fill="#FF00BD"/><path d="M17.5105 14.246H13.0865V10.452H11.2945V20H13.0865V15.926H17.5105V20H19.3025V10.452H17.5105V14.246ZM20.4353 10.452V12.146H23.3893V20H25.1953V12.146H28.1493V10.452H20.4353ZM28.4606 10.452V12.146H31.4146V20H33.2206V12.146H36.1746V10.452H28.4606ZM41.232 10.452H37.312V20H39.104V16.486H41.232C42.968 16.486 44.424 15.422 44.424 13.462C44.424 11.502 42.968 10.452 41.232 10.452ZM39.104 14.792V12.146H40.966C41.946 12.146 42.604 12.608 42.604 13.462C42.604 14.316 41.946 14.792 40.952 14.792H39.104Z" fill="white"/><path d="M27.3291 50.7415C27.7386 51.1121 28.371 51.0805 28.7415 50.6709L34.7798 43.9971C35.1503 43.5876 35.1187 42.9552 34.7091 42.5846C34.2996 42.2141 33.6672 42.2457 33.2967 42.6553L27.9294 48.5876L21.9971 43.2202C21.5876 42.8497 20.9552 42.8813 20.5846 43.2909C20.2141 43.7004 20.2457 44.3328 20.6553 44.7033L27.3291 50.7415ZM26.0012 30.0499L27.0012 50.0499L28.9988 49.9501L27.9988 29.9501L26.0012 30.0499Z" fill="#705D76"/></svg>