<svg xmlns="http://www.w3.org/2000/svg" xml:space="preserve" viewBox="79.79 2.05 210.32 212.9" class="h-5 lg:h-11" role="img" aria-label="Dynatrace"><path d="M79.8 84.6c.1 10.8.5 27.8 1.8 46.9 2.1 32.4 6.3 61.2 6.3 61.2l53.9-51.3s-2-25.7 1.2-64c0 0-59.7-7.2-63.2 7.2zM204.1 214.6c14-4 9.9-62.6 9.9-62.6-38.5 1.3-64-1.9-64-1.9l-54 51.2s28.6 5.6 60.8 9.3c18.2 2.1 42.9 3.8 46.3 4 .4.1.8 0 1 0z"/><path d="M79.8 81.3v3.3c.6-2.6 1.6-4.5 3.8-7.2 4.4-5.6 11.6-7.1 14.5-7.5 14.6-1.9 36.2-4.3 57.9-4.9 38.5-1.2 63.9 2 63.9 2l53.9-51.3s-28.3-5.4-60.6-9.2c-21.1-2.5-39.7-3.8-50.1-4.4-.7 0-8.2-1-15.2 5.7-7.7 7.3-46.3 43.9-61.8 58.7-6.8 6.6-6.3 14.1-6.3 14.8zM206.9 214.9c-1-.1-2.1-.1-3.3-.2 2.7-.5 4.5-1.4 7.4-3.4 5.8-4.2 7.7-11.2 8.2-14.1 2.6-14.5 6-35.9 7.8-57.6 3.1-38.4 1.1-63.9 1.1-63.9L282 24.4s4 28.5 6.2 60.9c1.4 21.2 1.8 39.8 1.9 50.2 0 .7.6 8.2-6.4 14.9-7.7 7.3-46.2 44.1-61.7 58.9-6.9 6.5-14.4 5.6-15.1 5.6z"/></svg>