<svg xmlns="http://www.w3.org/2000/svg" fill="none" viewBox="0 0 142 37" class="h-8 lg:h-11" role="img" aria-label="Nook"><path d="M64.34.06c0 .052-.822 1.477-.822 1.477s-8.886 15.494-13.382 23.266c-1.342 2.32-2.233 3.745-2.588 4.142-.555.62-1.675 1.42-2.266 1.618a2.099 2.099 0 0 0-.434.193c-.24.184-1.57.325-2.6.273-1.162-.058-1.995-.286-2.831-.777l-.645-.376c-.587-.338-1.711-1.643-2.249-2.613a24.593 24.593 0 0 0-.684-1.178 13.036 13.036 0 0 1-.358-.615 12.62 12.62 0 0 0-.354-.614 6.024 6.024 0 0 1-.363-.693c-.063-.155-.156-.282-.206-.282-.05 0-.092-.048-.092-.108 0-.058-.31-.635-.69-1.282-.28-.474-.556-.95-.825-1.431-.102-.195-.215-.254-.488-.254-.29 0-.388.06-.55.333a5.73 5.73 0 0 1-.281.436c-.08.114-.15.234-.212.359-.12.226-.247.448-.384.665-.142.226-.303.503-.36.615-.055.113-.214.39-.349.615-.136.226-.318.549-.407.718a11.5 11.5 0 0 1-.38.666c-.12.197-.357.613-.525.923a9.53 9.53 0 0 1-.421.717 4.556 4.556 0 0 0-.28.46c-.147.281-1.971 3.426-2.514 4.338a9.93 9.93 0 0 0-.299.532c-.31.643-2.645 4.588-2.776 4.689-.13.1-2.528.128-11.195.128C5.464 37 .5 36.974.5 36.942c0-.03.499-.919 1.109-1.974a142.56 142.56 0 0 0 1.181-2.067c.04-.085.185-.34.322-.564.137-.226.307-.526.377-.666.07-.142.153-.28.186-.307.051-.046 1.037-1.744 1.638-2.82.127-.225.315-.547.42-.717.105-.17.26-.447.346-.614.086-.17.27-.494.41-.718.14-.226.3-.503.354-.615.054-.113.215-.39.358-.615.142-.226.329-.549.415-.718.088-.17.215-.4.282-.515.066-.115.394-.69.727-1.281.334-.59.636-1.097.673-1.125a.644.644 0 0 0 .134-.205 6.91 6.91 0 0 1 .322-.564c.14-.226.326-.548.412-.717.087-.169.27-.492.407-.718a9.56 9.56 0 0 0 .325-.564c.04-.084.74-1.306 1.554-2.715.815-1.41 2.13-3.69 2.923-5.07 1.62-2.814 2.202-3.527 3.489-4.27.967-.56 1.508-.745 2.484-.855 1.472-.17 2.738.059 3.962.712.68.364.807.448 1.3.853.772.636 1.253 1.353 3.409 5.083 1.939 3.355 2.067 3.548 2.362 3.578.254.025.361-.033.563-.307.138-.187.306-.454.375-.596.07-.14.223-.416.344-.614.12-.197.357-.614.525-.923.169-.31.369-.636.445-.726.077-.088.14-.188.14-.219 0-.11 1.267-2.283 1.35-2.318a.147.147 0 0 0 .082-.127c0-.051.31-.625.69-1.277.38-.652.8-1.38.934-1.616.904-1.598 4.154-7.219 4.235-7.324C42.143.027 44.502 0 53.251 0 59.35 0 64.34.025 64.34.06Zm64.604 21.54 1.28-1.645c.702-.903 1.614-2.085 2.023-2.625.88-1.16 1.162-1.526 1.301-1.685.056-.065.306-.395.554-.732.248-.34.524-.692.614-.787.201-.238.391-.484.571-.738l.409-.568 2.789-.005c1.533-.002 2.787.02 2.787.05 0 .051-1.107 1.471-1.358 1.74a8.29 8.29 0 0 0-.347.427 25.32 25.32 0 0 1-.741.918c-.111.135-1.434 1.768-1.592 1.966a7 7 0 0 1-.264.307c-.087.096-.523.636-.968 1.199a45.773 45.773 0 0 1-.864 1.077c-.03.028-.275.313-.544.633l-.488.582.48.597c.263.329.635.78.826 1.006.431.511.457.543 1.206 1.486.577.73.767.962 1.03 1.26.06.068.425.516.813.995.386.48.73.895.764.922.033.029.425.513.871 1.077.445.563.919 1.139 1.052 1.278.621.647.725.619-2.302.614l-2.74-.003-.53-.689a249.589 249.589 0 0 0-2.67-3.408 41.01 41.01 0 0 1-.648-.816c-.285-.366-.671-.85-.859-1.075a17.053 17.053 0 0 1-.671-.872 8.853 8.853 0 0 0-.493-.636 4.405 4.405 0 0 1-.267-.307c-.057-.073-.31-.384-.563-.69l-.461-.558-.101 9.007h-4.604l-.053-25.368h4.706l.052 16.065ZM76.47 12.541c.747.225 1.138.403 1.866.853.78.483 2.27 2.347 2.27 2.84 0 .081.04.162.09.18.048.02.196.427.327.906.236.861.238.947.274 7.254l.036 6.382-4.769-.055-.106-11.992-.234-.426c-.309-.563-.805-1.064-1.414-1.429-.478-.286-.544-.297-1.793-.297-1.23 0-1.324.014-1.862.296-1.05.55-1.576 1.239-1.902 2.483-.197.75-.208 1.097-.208 6.107v5.313l-4.656-.055v-18.04l4.656-.054v1.872l.547-.584c.3-.32.64-.637.753-.703.745-.433 1.14-.614 1.698-.784.946-.285.944-.285 2.329-.298 1.081-.01 1.416.027 2.098.231Zm18.516-.033c2.35.607 4.057 1.672 5.3 3.31 1.208 1.589 1.698 2.772 1.976 4.757.163 1.171.164 1.338.009 2.46-.091.662-.27 1.527-.397 1.922-.232.717-.811 1.907-1.076 2.21-.078.09-.141.198-.141.241 0 .102-.417.576-1.176 1.339-1.29 1.294-2.814 2.086-4.86 2.523-.534.116-2.945.14-3.536.039-.449-.077-1.621-.411-1.937-.552-1.45-.643-2.2-1.134-3.13-2.056-.82-.812-1.319-1.488-1.743-2.364-.565-1.162-.677-1.491-.917-2.708-.615-3.097.38-6.338 2.65-8.626 1.21-1.22 2.638-2.023 4.368-2.457 1.283-.323 3.44-.339 4.61-.038Zm20.761.091c1.001.286 2.094.78 2.879 1.302.656.436 1.962 1.721 2.456 2.416 1.804 2.54 2.177 6.344.918 9.357-.232.555-.834 1.648-1.043 1.896-.622.733-1.94 1.982-2.398 2.273-1.391.883-2.878 1.392-4.414 1.51-1.211.094-2.856-.018-3.507-.24-.26-.088-.521-.162-.579-.162-.306 0-1.682-.709-2.517-1.297-1.242-.877-2.46-2.313-2.985-3.522l-.334-.767c-.35-.793-.516-1.724-.567-3.177-.047-1.334-.025-1.659.165-2.459.119-.508.319-1.176.443-1.486.28-.699 1.118-2.153 1.463-2.534.716-.795 1.376-1.404 1.835-1.696.282-.179.535-.353.564-.387.027-.035.327-.189.664-.34.338-.154.687-.318.777-.368.135-.073 1.146-.358 1.985-.559.113-.026.918-.035 1.79-.02 1.284.021 1.743.072 2.405.26Zm-23.939 4.373c-1.571.34-2.682 1.149-3.27 2.379-.153.321-.323.668-.377.77-.31.587-.27 2.902.06 3.543.087.17.16.36.16.423 0 .18.615 1.035 1.041 1.448 1.467 1.421 3.98 1.689 5.877.628 2.228-1.248 3.003-4.359 1.717-6.895-.287-.567-1.36-1.575-1.986-1.864-1.073-.5-2.209-.652-3.222-.432Zm20.87-.091c-.702.097-1.518.362-2.021.656-1.686.985-2.571 3.022-2.252 5.193.111.76.473 1.78.655 1.85.048.02.089.094.089.165 0 .171.97 1.085 1.486 1.403 1.114.681 2.855.861 4.115.425 2.067-.717 3.299-2.484 3.299-4.733 0-2.006-1.093-3.772-2.796-4.52-.424-.187-1.883-.527-2.136-.497l-.439.058Z" clip-rule="evenodd"/></svg>