<svg xmlns="http://www.w3.org/2000/svg" fill="none" viewBox="0 0 124 29" class="h-8 lg:h-11" role="img" aria-label="iTicket"><path d="M50.761.024c-1.9.14-3.34.552-4.39 1.255-1.702 1.14-2.644 3.094-3.12 6.474-.15 1.048-1.244 10.354-1.446 12.283-.168 1.6-.195 2.128-.149 2.87.086 1.378.343 2.315.841 3.06.76 1.138 1.994 1.736 4.074 1.97.483.056.925.065 3.233.066 1.982 0 2.786-.011 3.107-.047 3.443-.38 5.51-2.21 6.388-5.66.145-.567.2-.856.332-1.711.134-.877.116-1.072-.123-1.31-.229-.23-.24-.231-2.37-.231h-1.915l-.18.083a.919.919 0 0 0-.488.478c-.127.25-.162.379-.274 1.02-.164.935-.407 1.465-.903 1.965-.242.244-.349.32-.632.458-.547.264-.664.277-2.426.277-1.672-.001-1.857-.018-2.205-.206-.235-.127-.4-.342-.5-.653-.113-.344-.136-1.33-.053-2.167.2-2.004 1.41-11.932 1.54-12.635.264-1.432.752-2.258 1.57-2.658.591-.29 1.002-.338 2.688-.312 1.344.02 1.553.044 1.934.224a1.3 1.3 0 0 1 .563.572c.148.335.177.858.09 1.632-.123 1.077-.047 1.372.392 1.525.168.059.356.064 2.1.064 2.175 0 2.16.002 2.455-.284.2-.193.284-.426.377-1.038.373-2.457.178-4.031-.652-5.262-.738-1.094-1.943-1.744-3.777-2.038C56.365.012 56.23.008 53.76 0c-1.42-.004-2.77.006-2.999.023Zm-37.713.18c-.382.076-.706.348-.818.687-.032.097-.137.816-.232 1.597-.21 1.734-.202 1.91.106 2.17.218.183.198.182 3.062.196 2.646.012 2.683.013 2.683.084 0 .039-.61 5.047-1.355 11.13-1.127 9.193-1.35 11.082-1.318 11.197.05.187.182.336.388.437l.171.084h4.66l.192-.086c.265-.12.46-.352.55-.651.045-.157.521-3.96 1.39-11.095.727-5.971 1.33-10.91 1.342-10.972l.02-.116 5.358-.021.217-.087c.268-.106.492-.327.573-.566.066-.193.384-2.748.384-3.081 0-.433-.159-.714-.487-.862-.138-.062-.535-.065-8.436-.07-4.56-.003-8.363.008-8.45.026V.204ZM34.45.19c-.505.114-.775.36-.884.81-.049.2-3.184 25.863-3.186 26.07-.002.346.174.576.517.678.283.084 4.476.084 4.76 0 .328-.098.596-.401.688-.78.022-.086.74-5.905 1.594-12.93 1.121-9.204 1.551-12.837 1.54-13.01-.029-.45-.257-.74-.644-.823C38.66.167 34.613.154 34.45.19Zm32.325.032c-.1.026-.196.06-.29.103-.229.12-.438.436-.496.749-.013.072-.726 5.898-1.584 12.947-1.257 10.322-1.556 12.863-1.538 13.06.03.322.14.543.32.644l.14.08h2.386c2.324 0 2.393-.003 2.587-.076a.74.74 0 0 0 .47-.521c.03-.1.362-2.782.74-5.961.38-3.18.7-5.85.711-5.934l.022-.154h.427c.376 0 .43.008.445.063.01.035.662 2.722 1.448 5.97.786 3.25 1.465 5.987 1.51 6.083.044.097.144.23.224.3.27.23.253.23 2.831.23 1.681 0 2.37-.013 2.471-.043.221-.067.445-.287.537-.528.173-.455.26-.072-1.676-7.445l-1.748-6.66 3.248-5.823c2.322-4.163 3.27-5.892 3.323-6.07.067-.217.071-.273.034-.43-.058-.255-.163-.408-.359-.523l-.169-.1h-2.42c-2.304 0-2.431.004-2.638.07-.434.143-.276-.12-3.43 5.684l-2.85 5.248h-.369c-.36 0-.367-.001-.355-.081.008-.045.283-2.284.612-4.977.41-3.356.594-4.961.582-5.105-.037-.433-.27-.734-.639-.817-.1-.023-.946-.037-2.24-.036-1.676 0-2.114.012-2.267.053Zm21.88-.018c-.263.04-.618.16-.822.28-.377.22-.716.677-.865 1.166-.089.294.069-.97-1.612 12.898-1.581 13.04-1.474 11.967-1.25 12.449.181.39.559.673 1.029.77.125.026 2.365.035 7.03.029l6.846-.01.207-.102a.913.913 0 0 0 .481-.528c.061-.175.377-2.93.38-3.314.003-.327-.112-.53-.382-.675l-.144-.078-4.426-.018c-4.909-.02-4.532 0-4.747-.254-.072-.086-.094-.153-.095-.281 0-.093.173-1.571.386-3.285l.385-3.116h4.202c2.97 0 4.257-.012 4.392-.04.256-.055.428-.147.562-.3.207-.235.246-.416.43-2.005.153-1.314.167-1.504.127-1.652-.062-.233-.158-.354-.358-.453l-.172-.084-4.308-.01c-3.69-.008-4.308-.017-4.308-.06 0-.167.728-5.992.759-6.073a.668.668 0 0 1 .352-.384l.171-.085 8.418-.036.202-.082c.235-.094.427-.27.541-.496.091-.204.119-.4.291-2 .134-1.244.148-1.442.109-1.59a.727.727 0 0 0-.435-.506l-.202-.095-6.485-.005c-3.567-.003-6.577.009-6.689.025Zm17.718 0c-.46.09-.755.366-.871.81-.021.08-.114.77-.206 1.536-.144 1.188-.163 1.422-.132 1.597.08.44.25.606.693.677.148.024 1.177.038 2.778.038h2.543l-.019.136-1.364 11.12c-.955 7.785-1.339 11.028-1.321 11.128.039.205.273.427.532.502.179.052.46.057 2.456.048 2.232-.01 2.255-.01 2.423-.09.244-.12.435-.327.535-.58.06-.16.356-2.5 1.421-11.223l1.345-11.022 2.672-.02c2.912-.02 2.837-.015 3.162-.23.144-.095.287-.31.354-.527.073-.242.374-2.897.352-3.116-.037-.382-.17-.594-.455-.728l-.163-.076-8.291-.005c-4.56-.003-8.36.008-8.444.025ZM4.117.25a1.06 1.06 0 0 0-.77.73c-.03.098-.14.74-.242 1.425-.21 1.424-.22 1.708-.066 1.988a.64.64 0 0 0 .25.25l.163.092h2.294c2.25 0 2.297-.001 2.457-.075.215-.1.39-.28.494-.51.12-.261.495-2.735.468-3.086-.03-.398-.154-.614-.439-.767C8.583.22 8.556.22 6.432.213 4.804.207 4.242.217 4.117.25Zm-.935 7.432c-.232.047-.525.2-.638.334-.264.31-.175-.3-1.408 9.68-.624 5.05-1.135 9.26-1.135 9.357a.63.63 0 0 0 .23.524c.26.228.281.23 2.7.218l2.182-.01.181-.083c.296-.137.468-.35.59-.73.062-.19 2.254-18.042 2.252-18.33-.004-.483-.155-.763-.494-.915-.133-.06-.306-.066-2.221-.071-1.143-.004-2.15.008-2.239.026Z" clip-rule="evenodd"/></svg>