<svg xmlns="http://www.w3.org/2000/svg" viewBox="0 0 156 32" height="17" fill="none"><g clip-path="url(#spice_svg__a)"><path fill-rule="evenodd" d="m46.934 13.532 3.92.825c4.347.897 6.46 3.13 6.46 6.825 0 1.98-.742 3.668-2.145 4.879-1.55 1.34-3.787 2.019-6.645 2.019-8.544 0-9.824-4.886-9.824-7.794v-.876h4.23v.67c0 2.54.937 4.011 5.731 4.011 3.626 0 4.355-1.06 4.355-2.772 0-2.153-.901-2.663-4-3.294l-3.923-.791c-4.254-.815-6.324-2.98-6.324-6.617 0-3.165 2.33-6.863 8.894-6.863 3.065 0 5.436.803 7.047 2.385 1.41 1.389 2.157 3.318 2.157 5.583v.698h-4.23v-.669c0-2.408-.863-4.01-5.078-4.01-3.958 0-4.492 1.366-4.492 2.703 0 1.848.686 2.39 3.867 3.088Zm16.47-1.256c1.025-1.665 2.978-2.57 5.594-2.57 4.863 0 7.758 3.44 7.757 9.198 0 5.742-2.81 9.169-7.517 9.169-2.42 0-4.418-.884-5.524-2.404v7.316h-4.265V10.05h3.955v2.227Zm4.7 12.055c3.174 0 4.354-1.467 4.354-5.422 0-2.075-.324-3.434-1.017-4.276-.662-.805-1.725-1.18-3.337-1.18-2.954 0-4.39 1.277-4.39 3.907v3.063c0 2.628 1.436 3.908 4.39 3.908ZM83.19 9.947h-4.298v17.788h4.298V9.947Zm-.034-2.473h-4.26l-.037-3.016a.407.407 0 0 1 .321-.397h3.976v3.413Zm16.478 4.213c-1.434-1.296-3.401-1.978-5.688-1.978-2.684 0-4.923.882-6.476 2.549-1.513 1.628-2.315 3.927-2.315 6.655 0 2.727.78 5.016 2.257 6.638 1.526 1.678 3.737 2.56 6.398 2.56 4.73 0 8.033-2.95 8.033-7.174v-.6H97.58v.497c0 2.327-1.164 3.323-3.874 3.323-3.004 0-4.286-1.57-4.286-5.25 0-3.704 1.28-5.284 4.286-5.284 2.715 0 3.873 1.004 3.873 3.356v.498h4.264v-.6c0-2.09-.762-3.888-2.208-5.19Zm16.182 9.718h4.265v.604c0 1.813-.769 3.349-2.225 4.44-1.423 1.064-3.414 1.629-5.74 1.629-5.456 0-8.585-3.355-8.585-9.204 0-5.57 3.356-9.169 8.55-9.169 4.943 0 8.137 3.031 8.137 7.724 0 1.206-.179 2.367-.271 2.631h-12.341c.204 3.009 1.453 4.132 4.543 4.132 3.667 0 3.667-1.671 3.667-2.22v-.567Zm-3.804-7.987c-2.757 0-4.072 1.075-4.36 3.583l8.447.002c.01-1.134-.262-1.977-.83-2.559-.657-.677-1.753-1.026-3.257-1.026Zm23.065-9.357-9.22 23.672h4.414l2.355-6.027h10.448l2.355 6.027h4.552L140.761 4.06h-5.683Zm-.953 13.82 2.302-5.816 1.442-4.071 1.412 4.07 2.299 5.817h-7.455Zm17.507-13.819h4.206v23.673h-4.206V4.063Z" clip-rule="evenodd"/><path d="M30.198 7.773h-2.957a3.474 3.474 0 0 1-2.48-1.036 3.54 3.54 0 0 1-1.026-2.502V1.249a1.259 1.259 0 0 0-.363-.883A1.238 1.238 0 0 0 22.496 0h-4.39a1.198 1.198 0 0 0-.855.357 1.22 1.22 0 0 0-.354.863v4.448a1.24 1.24 0 0 0 .357.871 1.219 1.219 0 0 0 .864.362h2.976c.93 0 1.821.372 2.479 1.035a3.555 3.555 0 0 1 1.026 2.502v2.995c0 .329.13.645.36.878.231.232.544.363.87.363h4.383c.325 0 .637-.13.866-.362.23-.232.36-.547.36-.875v-4.41a1.263 1.263 0 0 0-.363-.886 1.239 1.239 0 0 0-.877-.368ZM30.227 17.055H25.82c-.324 0-.635.13-.864.361-.23.231-.358.545-.358.872v3.003c0 .938-.37 1.838-1.026 2.502a3.49 3.49 0 0 1-2.48 1.036h-2.96c-.326 0-.639.13-.87.363-.23.233-.36.548-.36.877v4.424c0 .328.13.643.36.874.229.232.54.363.865.363h4.364a1.23 1.23 0 0 0 .877-.367 1.252 1.252 0 0 0 .363-.885v-2.985c0-.938.37-1.838 1.026-2.501a3.49 3.49 0 0 1 2.48-1.036h2.958c.328 0 .643-.132.875-.366.232-.234.363-.552.363-.884v-4.431c0-.323-.127-.633-.353-.861a1.203 1.203 0 0 0-.852-.359ZM13.32 24.825h-2.976c-.93 0-1.821-.373-2.478-1.036a3.54 3.54 0 0 1-1.028-2.502V18.29c0-.329-.13-.644-.36-.877a1.223 1.223 0 0 0-.87-.363H1.226a1.216 1.216 0 0 0-.866.362 1.237 1.237 0 0 0-.359.874V22.7a1.261 1.261 0 0 0 .363.885 1.24 1.24 0 0 0 .877.366h2.958c.93 0 1.82.373 2.479 1.036a3.558 3.558 0 0 1 1.026 2.502v2.982c0 .332.131.65.363.884.232.234.547.365.875.366h4.396c.32 0 .628-.13.854-.358.227-.229.354-.538.354-.862v-4.45a1.238 1.238 0 0 0-.36-.869c-.23-.23-.542-.359-.865-.357ZM1.208 14.674h4.41a1.212 1.212 0 0 0 .863-.36 1.232 1.232 0 0 0 .357-.872v-3.004a3.564 3.564 0 0 1 1.027-2.502 3.488 3.488 0 0 1 2.478-1.035h2.969c.326 0 .639-.131.869-.364.23-.232.36-.548.36-.877V1.236c0-.328-.129-.642-.359-.874A1.22 1.22 0 0 0 13.316 0H8.943a1.23 1.23 0 0 0-.877.366 1.251 1.251 0 0 0-.363.884v2.985a3.566 3.566 0 0 1-1.026 2.502 3.502 3.502 0 0 1-2.48 1.036H1.241c-.328 0-.643.132-.875.366a1.256 1.256 0 0 0-.363.884v4.43c0 .324.127.633.353.862.226.229.532.358.852.36ZM18.682 11h-5.654a2.137 2.137 0 0 0-2.128 2.147v5.706c0 1.186.953 2.147 2.128 2.147h5.654a2.137 2.137 0 0 0 2.127-2.147v-5.706A2.137 2.137 0 0 0 18.682 11Z"/></g><defs><clipPath id="spice_svg__a"><path d="M0 0h156v32H0z"/></clipPath></defs></svg>