<svg class="hidden self-start lg:flex" width="202" height="314" viewBox="0 0 202 314" fill="none" xmlns="http://www.w3.org/2000/svg"><rect y="43.5" width="202" height="40" rx="10" fill="#1D1520"/><circle cx="30" cy="59.5" r="3" stroke="#FF00BD" stroke-width="2"/><path d="M37 70.5L35.8243 68.4845C35.1075 67.2556 33.7919 66.5 32.3692 66.5H27.6308C26.2081 66.5 24.8925 67.2556 24.1757 68.4845L23 70.5" stroke="#FF00BD" stroke-width="2"/><path d="M36 56.5H39C40.1046 56.5 41 57.3954 41 58.5V62.5C41 63.6046 40.1046 64.5 39 64.5H38" stroke="#FF00BD" stroke-width="2"/><path d="M57.418 68.154C59.742 68.154 61.436 66.81 61.884 64.85H60.036C59.63 65.732 58.776 66.432 57.418 66.432C55.682 66.432 54.352 65.074 54.352 63.226C54.352 61.392 55.682 60.02 57.418 60.02C58.776 60.02 59.63 60.72 60.036 61.602H61.884C61.436 59.642 59.742 58.312 57.418 58.312C54.618 58.312 52.518 60.412 52.518 63.226C52.518 66.04 54.618 68.154 57.418 68.154ZM66.1983 68.154C68.0183 68.168 69.2643 66.852 69.2643 65.172V61.42H67.4863V65.032C67.4863 66.012 67.0943 66.6 66.1983 66.586C65.3583 66.572 64.9383 65.984 64.9383 65.032V61.42H63.1603V65.158C63.1603 66.894 64.2523 68.14 66.1983 68.154ZM73.2535 68.154C74.5975 68.154 75.7455 67.384 75.7455 66.208C75.7455 63.688 72.3435 64.276 72.3435 63.254C72.3435 62.918 72.6375 62.666 73.0995 62.666C73.5755 62.666 73.8835 62.932 73.9535 63.324H75.6195C75.5215 62.036 74.5415 61.266 73.0995 61.28C71.6155 61.28 70.7055 62.162 70.7055 63.254C70.7055 65.802 74.0655 65.144 74.0655 66.208C74.0655 66.53 73.7575 66.768 73.2535 66.768C72.7635 66.768 72.3155 66.53 72.2315 66.026H70.5375C70.6355 67.272 71.7275 68.154 73.2535 68.154ZM81.1695 61.42H79.2515V59.194H77.4735V61.42H76.2835V62.834H77.4735V65.522C77.4735 67.216 78.4815 68.112 79.9655 68.112C80.3155 68.112 80.6375 68.056 81.0015 67.958V66.516C80.7355 66.53 80.5255 66.53 80.4415 66.53C79.5595 66.53 79.2515 66.138 79.2515 65.284V62.834H81.1695V61.42ZM85.4233 68.154C87.4673 68.154 88.9373 66.656 88.9373 64.71C88.9373 62.764 87.4673 61.28 85.4233 61.28C83.3792 61.28 81.9093 62.764 81.9093 64.71C81.9093 66.656 83.3792 68.154 85.4233 68.154ZM85.4233 66.6C84.4013 66.6 83.6593 65.83 83.6593 64.71C83.6593 63.604 84.4013 62.82 85.4233 62.82C86.4453 62.82 87.1873 63.604 87.1873 64.71C87.1873 65.83 86.4453 66.6 85.4233 66.6ZM91.8445 68V64.402C91.8445 63.436 92.2365 62.834 93.0625 62.834C93.8885 62.834 94.2805 63.436 94.2805 64.402V68H96.0585V64.402C96.0585 63.436 96.4505 62.834 97.2765 62.834C98.1025 62.834 98.4945 63.436 98.4945 64.402V68H100.273V64.262C100.273 62.442 99.2645 61.28 97.3885 61.28C96.0865 61.28 95.4005 62.064 95.1765 62.47H95.1485C94.9245 62.064 94.2525 61.28 92.9505 61.28C91.0745 61.28 90.0665 62.442 90.0665 64.262V68H91.8445ZM108.083 64.71C108.083 62.75 106.697 61.28 104.779 61.28C102.805 61.28 101.405 62.736 101.405 64.71C101.405 66.698 102.777 68.154 104.821 68.154C106.151 68.154 107.481 67.468 107.887 66.012H106.249C105.983 66.474 105.549 66.684 104.779 66.684C103.925 66.684 103.295 66.208 103.085 65.312H108.055C108.083 65.06 108.083 64.962 108.083 64.71ZM104.779 62.75C105.633 62.75 106.305 63.31 106.417 64.08H103.071C103.267 63.282 103.897 62.75 104.779 62.75ZM110.999 68V64.318C110.999 63.408 111.419 62.96 112.399 62.96C112.483 62.96 112.665 62.96 112.875 62.974V61.378C112.581 61.308 112.329 61.28 111.993 61.28C110.145 61.28 109.221 62.54 109.221 64.122V68H110.999ZM116.47 68.154C117.814 68.154 118.962 67.384 118.962 66.208C118.962 63.688 115.56 64.276 115.56 63.254C115.56 62.918 115.854 62.666 116.316 62.666C116.792 62.666 117.1 62.932 117.17 63.324H118.836C118.738 62.036 117.758 61.266 116.316 61.28C114.832 61.28 113.922 62.162 113.922 63.254C113.922 65.802 117.282 65.144 117.282 66.208C117.282 66.53 116.974 66.768 116.47 66.768C115.98 66.768 115.532 66.53 115.448 66.026H113.754C113.852 67.272 114.944 68.154 116.47 68.154Z" fill="white"/><rect y="89.5" width="202" height="40" rx="10" fill="#1D1520"/><circle cx="28.5" cy="105" r="3.5" stroke="#FF00BD" stroke-width="2"/><path d="M36 117.5L34.6056 114.711C33.928 113.356 32.543 112.5 31.0279 112.5H25.9721C24.457 112.5 23.072 113.356 22.3944 114.711L21 117.5" stroke="#FF00BD" stroke-width="2"/><circle cx="35.5" cy="107" r="2.5" stroke="#FF00BD" stroke-width="2"/><path d="M38.334 113.5V113.5C39.1596 113.5 39.9231 113.939 40.3391 114.652L42.0007 117.5" stroke="#FF00BD" stroke-width="2"/><path d="M54.884 114V104.452H53.092V114H54.884ZM58.5125 114V110.402C58.5125 109.436 58.9465 108.834 59.8145 108.834C60.6825 108.834 61.1165 109.436 61.1165 110.402V114H62.8805V110.262C62.8805 108.526 61.7745 107.28 59.8145 107.28C57.8405 107.28 56.7345 108.526 56.7345 110.262V114H58.5125ZM68.6188 107.42H66.7008V105.194H64.9228V107.42H63.7328V108.834H64.9228V111.522C64.9228 113.216 65.9308 114.112 67.4148 114.112C67.7648 114.112 68.0868 114.056 68.4508 113.958V112.516C68.1848 112.53 67.9748 112.53 67.8908 112.53C67.0088 112.53 66.7008 112.138 66.7008 111.284V108.834H68.6188V107.42ZM76.0365 110.71C76.0365 108.75 74.6505 107.28 72.7325 107.28C70.7585 107.28 69.3585 108.736 69.3585 110.71C69.3585 112.698 70.7305 114.154 72.7745 114.154C74.1045 114.154 75.4345 113.468 75.8405 112.012H74.2025C73.9365 112.474 73.5025 112.684 72.7325 112.684C71.8785 112.684 71.2485 112.208 71.0385 111.312H76.0085C76.0365 111.06 76.0365 110.962 76.0365 110.71ZM72.7325 108.75C73.5865 108.75 74.2585 109.31 74.3705 110.08H71.0245C71.2205 109.282 71.8505 108.75 72.7325 108.75ZM78.952 114V110.318C78.952 109.408 79.372 108.96 80.352 108.96C80.436 108.96 80.618 108.96 80.828 108.974V107.378C80.534 107.308 80.282 107.28 79.946 107.28C78.098 107.28 77.174 108.54 77.174 110.122V114H78.952ZM83.7235 114V110.402C83.7235 109.436 84.1575 108.834 85.0255 108.834C85.8935 108.834 86.3275 109.436 86.3275 110.402V114H88.0915V110.262C88.0915 108.526 86.9855 107.28 85.0255 107.28C83.0515 107.28 81.9455 108.526 81.9455 110.262V114H83.7235ZM94.4597 108.456C94.0817 107.714 93.3117 107.28 92.2757 107.28C90.7497 107.28 89.2237 108.442 89.2237 110.71C89.2237 112.978 90.7497 114.154 92.2757 114.154C93.2977 114.154 94.0677 113.72 94.4457 112.992L94.5577 114H96.1257V107.42H94.6137L94.4597 108.456ZM92.7377 112.6C91.7577 112.6 90.9737 111.886 90.9737 110.71C90.9737 109.562 91.7437 108.834 92.7377 108.834C93.5497 108.834 94.4177 109.506 94.4177 110.71C94.4177 111.984 93.5777 112.6 92.7377 112.6ZM99.8352 114V104.452H98.0712V114H99.8352ZM109.115 107.42H107.197V105.194H105.419V107.42H104.229V108.834H105.419V111.522C105.419 113.216 106.427 114.112 107.911 114.112C108.261 114.112 108.583 114.056 108.947 113.958V112.516C108.681 112.53 108.471 112.53 108.387 112.53C107.505 112.53 107.197 112.138 107.197 111.284V108.834H109.115V107.42ZM116.533 110.71C116.533 108.75 115.147 107.28 113.229 107.28C111.255 107.28 109.855 108.736 109.855 110.71C109.855 112.698 111.227 114.154 113.271 114.154C114.601 114.154 115.931 113.468 116.337 112.012H114.699C114.433 112.474 113.999 112.684 113.229 112.684C112.375 112.684 111.745 112.208 111.535 111.312H116.505C116.533 111.06 116.533 110.962 116.533 110.71ZM113.229 108.75C114.083 108.75 114.755 109.31 114.867 110.08H111.521C111.717 109.282 112.347 108.75 113.229 108.75ZM122.528 108.456C122.15 107.714 121.38 107.28 120.344 107.28C118.818 107.28 117.292 108.442 117.292 110.71C117.292 112.978 118.818 114.154 120.344 114.154C121.366 114.154 122.136 113.72 122.514 112.992L122.626 114H124.194V107.42H122.682L122.528 108.456ZM120.806 112.6C119.826 112.6 119.042 111.886 119.042 110.71C119.042 109.562 119.812 108.834 120.806 108.834C121.618 108.834 122.486 109.506 122.486 110.71C122.486 111.984 121.646 112.6 120.806 112.6ZM127.638 114V110.402C127.638 109.436 128.03 108.834 128.856 108.834C129.682 108.834 130.074 109.436 130.074 110.402V114H131.852V110.402C131.852 109.436 132.244 108.834 133.07 108.834C133.896 108.834 134.288 109.436 134.288 110.402V114H136.066V110.262C136.066 108.442 135.058 107.28 133.182 107.28C131.88 107.28 131.194 108.064 130.97 108.47H130.942C130.718 108.064 130.046 107.28 128.744 107.28C126.868 107.28 125.86 108.442 125.86 110.262V114H127.638ZM140.054 114.154C141.398 114.154 142.546 113.384 142.546 112.208C142.546 109.688 139.144 110.276 139.144 109.254C139.144 108.918 139.438 108.666 139.9 108.666C140.376 108.666 140.684 108.932 140.754 109.324H142.42C142.322 108.036 141.342 107.266 139.9 107.28C138.416 107.28 137.506 108.162 137.506 109.254C137.506 111.802 140.866 111.144 140.866 112.208C140.866 112.53 140.558 112.768 140.054 112.768C139.564 112.768 139.116 112.53 139.032 112.026H137.338C137.436 113.272 138.528 114.154 140.054 114.154Z" fill="white"/><rect y="135.5" width="202" height="40" rx="10" fill="#1D1520"/><circle cx="32" cy="150.5" r="4" stroke="#FF00BD" stroke-width="2"/><path d="M41 164.5L39.1056 160.711C38.428 159.356 37.043 158.5 35.5279 158.5H28.4721C26.957 158.5 25.572 159.356 24.8944 160.711L23 164.5" stroke="#FF00BD" stroke-width="2"/><path d="M56.9 150.452H52.98V160H54.772V156.486H56.9C58.636 156.486 60.092 155.422 60.092 153.462C60.092 151.502 58.636 150.452 56.9 150.452ZM54.772 154.792V152.146H56.634C57.614 152.146 58.272 152.608 58.272 153.462C58.272 154.316 57.614 154.792 56.62 154.792H54.772ZM65.7214 154.456C65.3434 153.714 64.5734 153.28 63.5374 153.28C62.0114 153.28 60.4854 154.442 60.4854 156.71C60.4854 158.978 62.0114 160.154 63.5374 160.154C64.5594 160.154 65.3294 159.72 65.7074 158.992L65.8194 160H67.3874V153.42H65.8754L65.7214 154.456ZM63.9994 158.6C63.0194 158.6 62.2354 157.886 62.2354 156.71C62.2354 155.562 63.0054 154.834 63.9994 154.834C64.8114 154.834 65.6794 155.506 65.6794 156.71C65.6794 157.984 64.8394 158.6 63.9994 158.6ZM70.8309 160V156.318C70.8309 155.408 71.2509 154.96 72.2309 154.96C72.3149 154.96 72.4969 154.96 72.7069 154.974V153.378C72.4129 153.308 72.1609 153.28 71.8249 153.28C69.9769 153.28 69.0529 154.54 69.0529 156.122V160H70.8309ZM78.0524 153.42H76.1344V151.194H74.3564V153.42H73.1664V154.834H74.3564V157.522C74.3564 159.216 75.3644 160.112 76.8484 160.112C77.1984 160.112 77.5204 160.056 77.8844 159.958V158.516C77.6184 158.53 77.4084 158.53 77.3244 158.53C76.4424 158.53 76.1344 158.138 76.1344 157.284V154.834H78.0524V153.42ZM80.9481 160V156.402C80.9481 155.436 81.3821 154.834 82.2501 154.834C83.1181 154.834 83.5521 155.436 83.5521 156.402V160H85.3161V156.262C85.3161 154.526 84.2101 153.28 82.2501 153.28C80.2761 153.28 79.1701 154.526 79.1701 156.262V160H80.9481ZM93.1263 156.71C93.1263 154.75 91.7403 153.28 89.8223 153.28C87.8483 153.28 86.4483 154.736 86.4483 156.71C86.4483 158.698 87.8203 160.154 89.8643 160.154C91.1943 160.154 92.5243 159.468 92.9303 158.012H91.2923C91.0263 158.474 90.5923 158.684 89.8223 158.684C88.9683 158.684 88.3383 158.208 88.1283 157.312H93.0983C93.1263 157.06 93.1263 156.962 93.1263 156.71ZM89.8223 154.75C90.6763 154.75 91.3483 155.31 91.4603 156.08H88.1143C88.3103 155.282 88.9403 154.75 89.8223 154.75ZM96.0418 160V156.318C96.0418 155.408 96.4618 154.96 97.4418 154.96C97.5258 154.96 97.7078 154.96 97.9178 154.974V153.378C97.6238 153.308 97.3718 153.28 97.0358 153.28C95.1878 153.28 94.2638 154.54 94.2638 156.122V160H96.0418ZM101.513 160.154C102.857 160.154 104.005 159.384 104.005 158.208C104.005 155.688 100.603 156.276 100.603 155.254C100.603 154.918 100.897 154.666 101.359 154.666C101.835 154.666 102.143 154.932 102.213 155.324H103.879C103.781 154.036 102.801 153.266 101.359 153.28C99.8753 153.28 98.9653 154.162 98.9653 155.254C98.9653 157.802 102.325 157.144 102.325 158.208C102.325 158.53 102.017 158.768 101.513 158.768C101.023 158.768 100.575 158.53 100.491 158.026H98.7973C98.8953 159.272 99.9873 160.154 101.513 160.154Z" fill="white"/><rect y="181.5" width="202" height="40" rx="10" fill="#1D1520"/><rect x="41" y="194.5" width="14" height="18" rx="2" transform="rotate(90 41 194.5)" stroke="#FF00BD" stroke-width="2"/><path d="M24 197.5H38V199.5H24V197.5Z" fill="#FF00BD"/><path d="M56.928 206L58.734 199.196C58.874 198.72 58.916 198.44 58.958 198.034H58.986C59.014 198.44 59.07 198.72 59.196 199.196L61.002 206H62.948L65.79 196.452H63.928L62.346 202.29C62.206 202.836 62.094 203.466 62.038 203.774H62.01C61.968 203.466 61.884 203.004 61.674 202.262L60.106 196.452H57.838L56.256 202.262C56.06 202.99 55.976 203.466 55.934 203.774H55.906C55.85 203.466 55.724 202.808 55.584 202.29L54.016 196.452H52.154L54.982 206H56.928ZM72.181 202.71C72.181 200.75 70.795 199.28 68.877 199.28C66.903 199.28 65.503 200.736 65.503 202.71C65.503 204.698 66.875 206.154 68.919 206.154C70.249 206.154 71.579 205.468 71.985 204.012H70.347C70.081 204.474 69.647 204.684 68.877 204.684C68.023 204.684 67.393 204.208 67.183 203.312H72.153C72.181 203.06 72.181 202.962 72.181 202.71ZM68.877 200.75C69.731 200.75 70.403 201.31 70.515 202.08H67.169C67.365 201.282 67.995 200.75 68.877 200.75ZM77.4205 199.28C76.4405 199.28 75.6985 199.686 75.3065 200.358V196.452H73.5425V206H75.1525L75.2645 204.992C75.6425 205.72 76.3985 206.154 77.4205 206.154C78.9185 206.154 80.4305 204.978 80.4305 202.71C80.4305 200.442 78.9185 199.28 77.4205 199.28ZM76.9585 204.6C76.1325 204.6 75.2925 203.984 75.2925 202.71C75.2925 201.436 76.1325 200.834 76.9585 200.834C77.9385 200.834 78.6805 201.534 78.6805 202.71C78.6805 203.886 77.9385 204.6 76.9585 204.6ZM89.6745 200.456C89.2965 199.714 88.5265 199.28 87.4905 199.28C85.9645 199.28 84.4385 200.442 84.4385 202.71C84.4385 204.978 85.9645 206.154 87.4905 206.154C88.5125 206.154 89.2825 205.72 89.6605 204.992L89.7725 206H91.3405V199.42H89.8285L89.6745 200.456ZM87.9525 204.6C86.9725 204.6 86.1885 203.886 86.1885 202.71C86.1885 201.562 86.9585 200.834 87.9525 200.834C88.7645 200.834 89.6325 201.506 89.6325 202.71C89.6325 203.984 88.7925 204.6 87.9525 204.6ZM97.094 199.28C96.114 199.28 95.358 199.728 94.952 200.498L94.798 199.42H93.23V208.772H94.994V205.006C95.414 205.734 96.142 206.154 97.094 206.154C98.606 206.154 100.118 204.978 100.118 202.71C100.118 200.442 98.606 199.28 97.094 199.28ZM96.646 204.6C95.82 204.6 94.98 204.012 94.98 202.71C94.98 201.478 95.848 200.834 96.646 200.834C97.626 200.834 98.368 201.562 98.368 202.71C98.368 203.886 97.626 204.6 96.646 204.6ZM105.338 199.28C104.358 199.28 103.602 199.728 103.196 200.498L103.042 199.42H101.474V208.772H103.238V205.006C103.658 205.734 104.386 206.154 105.338 206.154C106.85 206.154 108.362 204.978 108.362 202.71C108.362 200.442 106.85 199.28 105.338 199.28ZM104.89 204.6C104.064 204.6 103.224 204.012 103.224 202.71C103.224 201.478 104.092 200.834 104.89 200.834C105.87 200.834 106.612 201.562 106.612 202.71C106.612 203.886 105.87 204.6 104.89 204.6ZM111.972 206.154C113.316 206.154 114.464 205.384 114.464 204.208C114.464 201.688 111.062 202.276 111.062 201.254C111.062 200.918 111.356 200.666 111.818 200.666C112.294 200.666 112.602 200.932 112.672 201.324H114.338C114.24 200.036 113.26 199.266 111.818 199.28C110.334 199.28 109.424 200.162 109.424 201.254C109.424 203.802 112.784 203.144 112.784 204.208C112.784 204.53 112.476 204.768 111.972 204.768C111.482 204.768 111.034 204.53 110.95 204.026H109.256C109.354 205.272 110.446 206.154 111.972 206.154Z" fill="white"/><rect y="227.5" width="202" height="40" rx="10" fill="#1D1520"/><rect x="26" y="238.5" width="12" height="18" rx="2" stroke="#FF00BD" stroke-width="2"/><path d="M30 251.5H34V253.5H30V251.5Z" fill="#FF00BD"/><path d="M54.772 252V245.602C54.772 245.392 54.772 245.224 54.744 244.972H54.772C54.842 245.196 54.912 245.392 55.01 245.63L57.586 251.888H59.07L61.646 245.63C61.744 245.392 61.814 245.196 61.87 244.972H61.898C61.87 245.224 61.87 245.392 61.87 245.602V252H63.676V242.452H61.198L58.874 248.178C58.664 248.696 58.468 249.2 58.342 249.648H58.314C58.188 249.2 57.992 248.696 57.782 248.178L55.458 242.452H52.98V252H54.772ZM68.5522 252.154C70.5962 252.154 72.0662 250.656 72.0662 248.71C72.0662 246.764 70.5962 245.28 68.5522 245.28C66.5082 245.28 65.0382 246.764 65.0382 248.71C65.0382 250.656 66.5082 252.154 68.5522 252.154ZM68.5522 250.6C67.5302 250.6 66.7882 249.83 66.7882 248.71C66.7882 247.604 67.5302 246.82 68.5522 246.82C69.5742 246.82 70.3162 247.604 70.3162 248.71C70.3162 249.83 69.5742 250.6 68.5522 250.6ZM77.2975 245.28C76.3175 245.28 75.5755 245.686 75.1835 246.358V242.452H73.4195V252H75.0295L75.1415 250.992C75.5195 251.72 76.2755 252.154 77.2975 252.154C78.7955 252.154 80.3075 250.978 80.3075 248.71C80.3075 246.442 78.7955 245.28 77.2975 245.28ZM76.8355 250.6C76.0095 250.6 75.1695 249.984 75.1695 248.71C75.1695 247.436 76.0095 246.834 76.8355 246.834C77.8155 246.834 78.5575 247.534 78.5575 248.71C78.5575 249.886 77.8155 250.6 76.8355 250.6ZM82.3216 244.37C82.9236 244.37 83.4276 243.894 83.4276 243.292C83.4276 242.69 82.9236 242.2 82.3216 242.2C81.7056 242.2 81.2016 242.69 81.2016 243.292C81.2016 243.894 81.7056 244.37 82.3216 244.37ZM83.2036 252V245.42H81.4396V252H83.2036ZM86.7648 252V242.452H85.0008V252H86.7648ZM94.8626 248.71C94.8626 246.75 93.4766 245.28 91.5586 245.28C89.5846 245.28 88.1846 246.736 88.1846 248.71C88.1846 250.698 89.5566 252.154 91.6006 252.154C92.9306 252.154 94.2606 251.468 94.6666 250.012H93.0286C92.7626 250.474 92.3286 250.684 91.5586 250.684C90.7046 250.684 90.0746 250.208 89.8646 249.312H94.8346C94.8626 249.06 94.8626 248.962 94.8626 248.71ZM91.5586 246.75C92.4126 246.75 93.0846 247.31 93.1966 248.08H89.8506C90.0466 247.282 90.6766 246.75 91.5586 246.75Z" fill="white"/><rect y="273.5" width="202" height="40" rx="10" fill="#1D1520"/><path d="M26.3438 288.843C29.468 285.719 34.5333 285.719 37.6575 288.843L39.0717 287.429C35.1665 283.524 28.8349 283.524 24.9296 287.429L26.3438 288.843ZM29.1723 291.672C30.7343 290.109 33.267 290.109 34.8291 291.672L36.2433 290.257C33.9002 287.914 30.1012 287.914 27.758 290.257L29.1723 291.672Z" fill="#FF00BD"/><circle cx="32" cy="294.5" r="2" fill="#FF00BD"/><path d="M36.5 300.5H27.5V302.5H36.5V300.5ZM27.5 300.5C26.1193 300.5 25 299.381 25 298H23C23 300.485 25.0147 302.5 27.5 302.5V300.5ZM39 298C39 299.381 37.8807 300.5 36.5 300.5V302.5C38.9853 302.5 41 300.485 41 298H39ZM36.5 295.5C37.8807 295.5 39 296.619 39 298H41C41 295.515 38.9853 293.5 36.5 293.5V295.5ZM27.5 293.5C25.0147 293.5 23 295.515 23 298H25C25 296.619 26.1193 295.5 27.5 295.5V293.5Z" fill="#FF00BD"/><path d="M54.884 298V288.452H53.092V298H54.884ZM59.8705 298.154C61.9145 298.154 63.3845 296.656 63.3845 294.71C63.3845 292.764 61.9145 291.28 59.8705 291.28C57.8265 291.28 56.3565 292.764 56.3565 294.71C56.3565 296.656 57.8265 298.154 59.8705 298.154ZM59.8705 296.6C58.8485 296.6 58.1065 295.83 58.1065 294.71C58.1065 293.604 58.8485 292.82 59.8705 292.82C60.8925 292.82 61.6345 293.604 61.6345 294.71C61.6345 295.83 60.8925 296.6 59.8705 296.6ZM62.9274 288.452V290.146H65.8814V298H67.6874V290.146H70.6414V288.452H62.9274Z" fill="white"/><path d="M61.5356 1.224L59.2676 5.814C59.0696 6.228 58.9436 6.516 58.8356 6.912H58.7996C58.6736 6.516 58.5656 6.228 58.3496 5.814L56.0816 1.224H53.5076L57.6476 9.108V13.5H59.9696V9.126L64.1456 1.224H61.5356ZM67.8409 13.698C70.4689 13.698 72.3589 11.772 72.3589 9.27C72.3589 6.768 70.4689 4.86 67.8409 4.86C65.2129 4.86 63.3229 6.768 63.3229 9.27C63.3229 11.772 65.2129 13.698 67.8409 13.698ZM67.8409 11.7C66.5269 11.7 65.5729 10.71 65.5729 9.27C65.5729 7.848 66.5269 6.84 67.8409 6.84C69.1549 6.84 70.1089 7.848 70.1089 9.27C70.1089 10.71 69.1549 11.7 67.8409 11.7ZM77.7169 13.698C80.0569 13.716 81.6589 12.024 81.6589 9.864V5.04H79.3729V9.684C79.3729 10.944 78.8689 11.7 77.7169 11.682C76.6369 11.664 76.0969 10.908 76.0969 9.684V5.04H73.8109V9.846C73.8109 12.078 75.2149 13.68 77.7169 13.698ZM85.8879 13.5V8.766C85.8879 7.596 86.4279 7.02 87.6879 7.02C87.7959 7.02 88.0299 7.02 88.2999 7.038V4.986C87.9219 4.896 87.5979 4.86 87.1659 4.86C84.7899 4.86 83.6019 6.48 83.6019 8.514V13.5H85.8879ZM99.9142 13.698C102.902 13.698 105.08 11.97 105.656 9.45H103.28C102.758 10.584 101.66 11.484 99.9142 11.484C97.6822 11.484 95.9722 9.738 95.9722 7.362C95.9722 5.004 97.6822 3.24 99.9142 3.24C101.66 3.24 102.758 4.14 103.28 5.274H105.656C105.08 2.754 102.902 1.044 99.9142 1.044C96.3142 1.044 93.6142 3.744 93.6142 7.362C93.6142 10.98 96.3142 13.698 99.9142 13.698ZM109.925 13.5V1.224H107.657V13.5H109.925ZM113.371 3.69C114.145 3.69 114.793 3.078 114.793 2.304C114.793 1.53 114.145 0.899999 113.371 0.899999C112.579 0.899999 111.931 1.53 111.931 2.304C111.931 3.078 112.579 3.69 113.371 3.69ZM114.505 13.5V5.04H112.237V13.5H114.505ZM124.555 9.27C124.555 6.75 122.773 4.86 120.307 4.86C117.769 4.86 115.969 6.732 115.969 9.27C115.969 11.826 117.733 13.698 120.361 13.698C122.071 13.698 123.781 12.816 124.303 10.944H122.197C121.855 11.538 121.297 11.808 120.307 11.808C119.209 11.808 118.399 11.196 118.129 10.044H124.519C124.555 9.72 124.555 9.594 124.555 9.27ZM120.307 6.75C121.405 6.75 122.269 7.47 122.413 8.46H118.111C118.363 7.434 119.173 6.75 120.307 6.75ZM128.304 13.5V8.874C128.304 7.632 128.862 6.858 129.978 6.858C131.094 6.858 131.652 7.632 131.652 8.874V13.5H133.92V8.694C133.92 6.462 132.498 4.86 129.978 4.86C127.44 4.86 126.018 6.462 126.018 8.694V13.5H128.304ZM141.298 5.04H138.832V2.178H136.546V5.04H135.016V6.858H136.546V10.314C136.546 12.492 137.842 13.644 139.75 13.644C140.2 13.644 140.614 13.572 141.082 13.446V11.592C140.74 11.61 140.47 11.61 140.362 11.61C139.228 11.61 138.832 11.106 138.832 10.008V6.858H141.298V5.04ZM145.921 13.698C147.649 13.698 149.125 12.708 149.125 11.196C149.125 7.956 144.751 8.712 144.751 7.398C144.751 6.966 145.129 6.642 145.723 6.642C146.335 6.642 146.731 6.984 146.821 7.488H148.963C148.837 5.832 147.577 4.842 145.723 4.86C143.815 4.86 142.645 5.994 142.645 7.398C142.645 10.674 146.965 9.828 146.965 11.196C146.965 11.61 146.569 11.916 145.921 11.916C145.291 11.916 144.715 11.61 144.607 10.962H142.429C142.555 12.564 143.959 13.698 145.921 13.698Z" fill="white"/></svg>