<svg xmlns="http://www.w3.org/2000/svg" width="24" height="17" fill="none" class="text-white"><path fill="currentColor" fill-rule="evenodd" d="M0 1.981C0 .857.862 0 2.182 0c1.32 0 2.134.856 2.16 1.981 0 1.103-.838 1.983-2.183 1.983h-.026C.837 3.964 0 3.082 0 1.981ZM13.557 5.26c-2.049 0-2.965 1.114-3.478 1.895V5.53H6.22c.05 1.077 0 11.47 0 11.47h3.858v-6.405c0-.343.025-.685.127-.93.278-.684.913-1.394 1.98-1.394 1.397 0 1.955 1.052 1.955 2.594V17H18v-6.577C18 6.9 16.096 5.26 13.557 5.26Zm-9.471.271H.228V17h3.858V5.53Z" clip-rule="evenodd"/></svg>