<svg xmlns="http://www.w3.org/2000/svg" fill="none" viewBox="0 0 147 49" class="h-8 lg:h-11" role="img" aria-label="Common Paper"><path d="M26.497 26.763V43.61l-.628.023a18.954 18.954 0 0 1-1.526 0l-.63-.023V30.258l-7.068 11.397-.545-.298a18.895 18.895 0 0 1-1.307-.786l-.53-.349L21.2 29.036 9.476 35.3l-.323-.522a18.46 18.46 0 0 1-.75-1.326l-.29-.568 11.456-6.121H6.408v-2.771h12.37L7.435 18.77l.224-.572c.187-.472.392-.936.617-1.392l.281-.573 12.669 5.832-7.787-11.67.498-.368c.41-.303.83-.59 1.263-.858l.54-.335 7.975 11.953V6.39l.629-.024a18.278 18.278 0 0 1 1.526 0l.628.024v17.602h22.688A23.971 23.971 0 0 0 41.677 7.55 24.18 24.18 0 0 0 24.785.967 24.176 24.176 0 0 0 8.06 7.965 23.966 23.966 0 0 0 .964 24.586a23.959 23.959 0 0 0 6.543 16.846 24.168 24.168 0 0 0 16.483 7.542 24.188 24.188 0 0 0 17.1-6.025 23.979 23.979 0 0 0 8.05-16.186H26.497ZM58.739 16.08c0-4.839 3.262-8.065 8.077-8.065 3.983 0 6.863 2.24 7.538 5.937l-2.948.56c-.54-2.24-2.227-3.585-4.59-3.585-2.925 0-4.86 2.062-4.86 5.153 0 3.091 1.935 5.152 4.86 5.152 2.52 0 4.298-1.5 4.725-3.987l2.97.47c-.54 3.966-3.51 6.43-7.695 6.43-4.815 0-8.077-3.226-8.077-8.065Zm22.588 5.51c1.755 0 2.813-1.209 2.813-3.046 0-1.837-1.08-3.046-2.813-3.046-1.732 0-2.812 1.21-2.812 3.046 0 1.837 1.057 3.047 2.812 3.047Zm-5.602-3.046c0-3.383 2.227-5.6 5.602-5.6 3.375 0 5.603 2.217 5.603 5.6 0 3.383-2.228 5.6-5.603 5.6-3.375 0-5.602-2.217-5.602-5.6Zm12.891-5.376h2.115l.27 1.321c.765-.985 1.778-1.545 3.285-1.545 1.373 0 2.52.492 3.173 1.612.765-1.03 1.912-1.612 3.42-1.612 2.205 0 3.668 1.232 3.668 4.01v6.967h-2.701v-6.183c0-1.411-.54-2.218-1.799-2.218-1.328 0-2.116.94-2.116 2.375v6.026h-2.7v-6.183c0-1.411-.54-2.218-1.8-2.218-1.35 0-2.115.94-2.115 2.375v6.026h-2.7V13.168Zm18.179 0h2.115l.27 1.321c.765-.985 1.778-1.545 3.285-1.545 1.372 0 2.52.492 3.172 1.612.765-1.03 1.913-1.612 3.42-1.612 2.206 0 3.668 1.232 3.668 4.01v6.967h-2.7v-6.183c0-1.411-.54-2.218-1.8-2.218-1.328 0-2.115.94-2.115 2.375v6.026h-2.7v-6.183c0-1.411-.54-2.218-1.8-2.218-1.35 0-2.115.94-2.115 2.375v6.026h-2.7V13.168Zm23.173 8.422c1.756 0 2.813-1.209 2.813-3.046 0-1.837-1.08-3.046-2.813-3.046-1.732 0-2.812 1.21-2.812 3.046 0 1.837 1.058 3.047 2.812 3.047Zm-5.602-3.046c0-3.383 2.228-5.6 5.602-5.6 3.376 0 5.603 2.217 5.603 5.6 0 3.383-2.227 5.6-5.603 5.6-3.374 0-5.602-2.217-5.602-5.6Zm12.891-5.376h2.115l.271 1.321a4.14 4.14 0 0 1 3.397-1.546c2.273 0 3.96 1.255 3.96 4.145v6.833h-2.7v-6.138c0-1.546-.81-2.263-2.047-2.263-1.44 0-2.295.94-2.295 2.375v6.026h-2.7l-.001-10.753ZM67.401 34.582c2.048 0 2.948-.919 2.948-2.599 0-1.68-.9-2.576-2.948-2.576h-4.815v5.175h4.815Zm-7.943-7.751h8.19c4.073 0 5.896 1.994 5.896 5.152 0 3.159-1.823 5.153-5.895 5.153h-5.063v5.376h-3.127V26.831Zm19.26 13.733c1.462 0 2.52-.986 2.52-2.263v-.919l-2.655.74c-.945.269-1.395.65-1.395 1.3 0 .738.585 1.142 1.53 1.142Zm-4.275-.718c0-1.68 1.057-2.732 3.487-3.292l3.308-.762c-.09-1.3-.765-1.95-1.98-1.95-1.103 0-2.025.56-2.7 1.77l-2.025-.896c.855-2.083 2.542-3.18 4.95-3.18 2.858 0 4.342 1.478 4.342 4.3v3.63c0 .627.226.896.833.896.326-.015.65-.06.967-.135v2.017a5.132 5.132 0 0 1-1.8.358c-1.102 0-1.867-.448-2.272-1.345-.99 1.076-2.317 1.48-3.667 1.48-2.205 0-3.443-1.099-3.443-2.89Zm17.752.381c1.732 0 2.812-1.232 2.812-3.09 0-1.86-1.08-3.093-2.812-3.093-1.71 0-2.835 1.233-2.835 3.092 0 1.86 1.102 3.091 2.835 3.091Zm-5.333-8.467h2.07l.225 1.164a4.685 4.685 0 0 1 3.42-1.344c3.015 0 5.198 2.218 5.198 5.556s-2.183 5.555-5.198 5.555a4.806 4.806 0 0 1-3.015-.985v4.615h-2.7V31.76Zm19.956 4.099c-.224-1.255-1.125-2.016-2.497-2.016-1.395 0-2.34.74-2.678 2.016h5.175Zm-7.987 1.277c0-3.383 2.227-5.6 5.467-5.6 3.106 0 5.49 2.015 5.108 6.182h-7.875c.202 1.59 1.193 2.577 2.812 2.577 1.283 0 2.251-.628 2.701-1.635l2.295.761c-.676 1.994-2.566 3.316-5.063 3.316-3.286 0-5.445-2.219-5.445-5.6Zm12.396-5.376h2.047l.271 1.41a3.44 3.44 0 0 1 2.969-1.5c.325-.004.649.026.968.09v2.419h-1.012c-1.71 0-2.543.806-2.543 2.509v5.824h-2.7V31.76Z"/></svg>