<svg xmlns="http://www.w3.org/2000/svg" xml:space="preserve" id="bd_svg__Layer_1" x="0" y="0" style="enable-background:new 0 0 1500 328" viewBox="0 0 1500 328" class="h-11 lg:h-16" role="img" aria-label="Blockdaemon"><style>.bd_svg__st0{fill-rule:evenodd;clip-rule:evenodd}</style><path d="m83.8 67.8 38.4-22.2 39.4 22.8 82.8-67V257.3l-122.2 70.5L.1 257.2V137H0V0l83.8 67.8zm-62.4 80.9v96.2l100.8 58.2L223 244.9v-94.7l-100.9 59.3-100.7-60.8zm4.1-22.5 96.8 58.5 98.1-57.7-98.1-56.7-96.8 55.9zm158.1-48.1 39.4 23.1v-55c-13.1 10.6-26.2 21.2-39.4 31.9zM21.4 99.8l39.4-23.1-39.4-31.9v55zM364.8 165.5h2.1c6.6 0 16.6-.9 16.6 8.5 0 8.6-10.1 8.3-16.1 8.3h-2.6v-16.8zm10.9 32.2c14.3 0 28.2-5.4 28.2-21.7 0-10.9-4.8-18.4-15.9-19.8v-.2c6.3-3.2 8.6-8.9 8.6-15.9 0-14.9-9.3-20.3-23.1-20.3h-28.9v77.9h31.1zm-10.9-62.4h1.4c5.5 0 11.8.4 11.8 7.5 0 6.6-5.6 7.5-11 7.5h-2.3v-15zM465.7 119.8h-20.3v77.9H490v-17.2h-24.3v-60.7zM566.8 117.2c-22.4 0-43.1 16.5-43.1 40.1 0 25.2 18.1 43 43.1 43s43.1-17.8 43.1-43c0-23.5-20.7-40.1-43.1-40.1zm0 19.7c12.1 0 22 9.8 22 20.6 0 13.4-9.9 23.2-22 23.2s-22-9.8-22-23.2c0-10.8 9.9-20.6 22-20.6zM705.9 121.7c-6-2.5-12-3.9-18.5-3.9-11 0-22 4.8-29.7 12.6-7.4 7.6-11.5 17.9-11.5 28.5 0 11.6 3.9 21.7 12.5 29.4 8.1 7.3 18.4 11.5 29.2 11.5 6.3 0 11.2-1.6 17.9-3.6v-24.3c-4.2 5.1-10.9 8.3-17.5 8.3-12.6 0-21.1-8.9-21.1-21.2 0-12.1 8.4-21.6 20.8-21.6 6.9 0 13.6 3 17.8 8.6v-24.3zM769.9 152h-.2v-32.1h-20.3v77.9h20.3V164h.2l26.1 33.8h26.2l-33.8-41 31-36.9h-25.1L769.9 152zM858.8 197.7h28.7c21.6 0 39.6-17 39.6-39 0-21.9-17.9-39-39.6-39h-28.7v78zM879 137h4.8c13 0 22.2 7.9 22.2 21.8 0 15.2-10.3 21.8-22.4 21.8H879V137zM1015.2 184.2l5.1 13.5h21.6l-29.3-77.9h-22.1l-30 77.9H982l5.4-13.5h27.8zm-5.5-15.5h-16.8l8.4-24.8h.2l8.2 24.8zM1123.5 137v-17.2h-44.3v77.9h44.3v-17.2h-24.1v-13.4h22.8V150h-22.8v-13h24.1zM1162.3 197.7h20.1l6.5-44.8h.2l17.9 44.8h8.1l18.7-44.8h.2l5.7 44.8h20.3l-11.8-77.9h-20.1l-16.7 41.6-15.8-41.6h-19.9l-13.4 77.9zM1338.7 117.2c-22.4 0-43.1 16.5-43.1 40.1 0 25.2 18.1 43 43.1 43s43.1-17.8 43.1-43c0-23.5-20.7-40.1-43.1-40.1zm0 19.7c12.1 0 22 9.8 22 20.6 0 13.4-9.9 23.2-22 23.2s-22-9.8-22-23.2c0-10.8 9.9-20.6 22-20.6zM1422.2 197.7h20.2V150h.2l37.1 47.7h20.2v-77.9h-20.2v47.6h-.2l-37.1-47.6h-20.2v77.9z" class="bd_svg__st0"/></svg>